/* XPM */
static char *_0f99f24ee5942648e5f5813ab07e791[] = {
/* columns rows colors chars-per-pixel */
"16 16 167 2 ",
"   c #232770",
".  c #353574",
"X  c #30357D",
"o  c #2C3385",
"O  c #313881",
"+  c #343A82",
"@  c #343890",
"#  c #393E96",
"$  c #46498F",
"%  c #404692",
"&  c #464A9F",
"*  c #4E5493",
"=  c #4E539C",
"-  c #505397",
";  c #565993",
":  c #6368A6",
">  c #7F80BB",
",  c #8085B8",
"<  c #8D91BE",
"1  c #8F91BF",
"2  c #8588C3",
"3  c #979AC0",
"4  c #9197C8",
"5  c #989BC8",
"6  c #9A9ACA",
"7  c #A9ACCE",
"8  c #AAAFCE",
"9  c #B5B7CB",
"0  c #B7B8CC",
"q  c #A1A7D4",
"w  c #ABADD3",
"e  c #B4B3D6",
"r  c #BDBED4",
"t  c #BFBFD5",
"y  c #B1B8DA",
"u  c #8DB2FF",
"i  c #8FB4FF",
"p  c #92B7FE",
"a  c #92B6FF",
"s  c #92B7FF",
"d  c #93B8FF",
"f  c #96B8FF",
"g  c #99BCFB",
"h  c #98BAFF",
"j  c #BDC0DC",
"k  c #BFC5DD",
"l  c #9FC3FF",
"z  c #B5C6E9",
"x  c #A0C0F7",
"c  c #AFC8F0",
"v  c #A3C0FF",
"b  c #ABC8FF",
"n  c #ADC9FF",
"m  c #ADCAFF",
"M  c #AFCBFF",
"N  c #B7CCF2",
"B  c #B9C8F1",
"V  c #BACEF0",
"C  c #B0CAFE",
"Z  c #B3CCFD",
"A  c #B0CCFF",
"S  c #B2CDFF",
"D  c #B3CDFF",
"F  c #B5CDFF",
"G  c #B6D0FF",
"H  c #B7D5FF",
"J  c #B8D0FA",
"K  c #BED3F9",
"L  c #BCD3FF",
"P  c #BDD4FF",
"I  c #C8CBD7",
"U  c #CBCCD7",
"Y  c #C4C6D8",
"T  c #C1C5DD",
"R  c #C1C9DE",
"E  c #C8C9D8",
"W  c #C9CCD9",
"Q  c #CACDDA",
"!  c #CBCEDB",
"~  c #D0CFD9",
"^  c #CFD1DD",
"/  c #D0D1DA",
"(  c #D0D1DB",
")  c #D1D2DB",
"_  c #C8CFE2",
"`  c #CACFE3",
"'  c #C2CCED",
"]  c #CAD1E2",
"[  c #CCD1E5",
"{  c #C3D0E9",
"}  c #C3D2EE",
"|  c #C8D4E9",
" . c #CFD7EF",
".. c #DADAE2",
"X. c #DDDCE2",
"o. c #DDDDE4",
"O. c #C4D6F5",
"+. c #CFD8F1",
"@. c #C3D5F8",
"#. c #C3D6FF",
"$. c #C6D9FE",
"%. c #C3DDFF",
"&. c #CADBFF",
"*. c #CBDCFC",
"=. c #D2DFF5",
"-. c #D8DFF2",
";. c #DCE1E9",
":. c #DDE0EA",
">. c #CAE1FF",
",. c #CFE0FF",
"<. c #C9E5FF",
"1. c #DEE4F1",
"2. c #DFE5F4",
"3. c #DDE5F7",
"4. c #D3E0FA",
"5. c #D1E0FF",
"6. c #D5E2FD",
"7. c #D4E6FF",
"8. c #D8E2FA",
"9. c #DBE5FD",
"0. c #DCEBFC",
"q. c #DCE8FF",
"w. c #DFEEFF",
"e. c #DDF2FF",
"r. c #E2E3E7",
"t. c #E3E3E9",
"y. c #E5E5EA",
"u. c #E4E5EB",
"i. c #E3E5ED",
"p. c #E9E9EE",
"a. c #EBECEE",
"s. c #E7E9F1",
"d. c #E8EBF1",
"f. c #EAEBF1",
"g. c #EAECF2",
"h. c #EDEEF2",
"j. c #EEEFF2",
"k. c #EAEDF4",
"l. c #E8ECF6",
"z. c #E0ECFF",
"x. c #E1ECFF",
"c. c #E1EDFF",
"v. c #E0EEFF",
"b. c #E1EEFF",
"n. c #E8EEF9",
"m. c #E6F3FF",
"M. c #E4F4FF",
"N. c #EAF1F9",
"B. c #E9F2FC",
"V. c #EAF1FF",
"C. c #ECF2FD",
"Z. c #EDF3FF",
"A. c #EBF5FE",
"S. c #F3F5F7",
"D. c #F0F4FA",
"F. c #F0F5FF",
"G. c #F1F6FF",
"H. c #F7F9FC",
"J. c #F6F9FE",
"K. c #F6F9FF",
"L. c #F6FFFF",
"P. c #FAFBFB",
"I. c #F8FAFF",
"U. c #FBFCFF",
"Y. c #FDFDFE",
"T. c gray100",
"R. c None",
/* pixels */
"R.R.R.R.R.R.R.U.I.R.R.R.R.R.R.R.",
"R.R.R.R.R.5.P D G ,.V.R.R.R.R.R.",
"R.R.R.F.v u l <.>.e.7.4.I.R.R.R.",
"R.R.F.f f H B w 1.q V c.4.I.R.R.",
"R.R.m a D %. .> 6 e 2.T.w.3.R.R.",
"R.c.i m D &.M.c.2 t : - ` V.D.R.",
"R.#.a m L q.w.8.& # 4 < [ N.l.R.",
"Z.F f b $.9.c.T.5 = T.T.n.1.k.T.",
"C.m a Z &.A.+.< > o + . Y H.k.P.",
"R.J g O.O.L.y @ 7 O * t i.f.h.R.",
"R.=.g O.N m.T % ; X s.T.f.y.h.R.",
"R.R.V c } w.8 $ 3   W D.t.y.R.R.",
"R.R.:.z { | k r T.0 9 p.o.t.R.R.",
"R.R.R.X.` R ] ;.Q a.r.) ..R.R.R.",
"R.R.R.R.R.^ Q Q I U ~ R.R.R.R.R.",
"R.R.R.R.R.R.R.( ) R.R.R.R.R.R.R."
};
