/* XPM */
static char *_4314b06b82f49bfdfa625b674231f76[] = {
/* columns rows colors chars-per-pixel */
"32 32 165 2 ",
"   c #000018",
".  c #00003E",
"X  c #000042",
"o  c #00004A",
"O  c #00015D",
"+  c #000667",
"@  c #00026B",
"#  c #0E166F",
"$  c #16196C",
"%  c #030973",
"&  c #0A1277",
"*  c #0E1578",
"=  c #111875",
"-  c #151C7C",
";  c #2A2866",
":  c #2E3175",
">  c #2E307F",
",  c #12188C",
"<  c #1F1F8E",
"1  c #1C2382",
"2  c #1D258A",
"3  c #22298B",
"4  c #2B3185",
"5  c #2D308A",
"6  c #3A3F87",
"7  c #333A88",
"8  c #363A90",
"9  c #3D4487",
"0  c #3B419B",
"q  c #444A94",
"w  c #40469D",
"e  c #4D529C",
"r  c #51559A",
"t  c #5A5E9A",
"y  c #696994",
"u  c #63669C",
"i  c #696E9C",
"p  c #4548A5",
"a  c #565AA4",
"s  c #5B5EA5",
"d  c #5156A9",
"f  c #5B5FAD",
"g  c #5B60A4",
"h  c #5C60AE",
"j  c #6666A7",
"k  c #6168A3",
"l  c #6D6FA3",
"z  c #6A6CAE",
"x  c #6F72A6",
"c  c #787BA7",
"v  c #7276A9",
"b  c #7D7FAC",
"n  c #6065B5",
"m  c #6C6FB2",
"M  c #7475B2",
"N  c #7B7FB3",
"B  c #7578BD",
"V  c #7D809F",
"C  c #7D80AC",
"Z  c #7F83B8",
"A  c #7F82C0",
"S  c #73A2FD",
"D  c #7FAAFE",
"F  c #8386AF",
"G  c #8B8BAB",
"H  c #8A8DBC",
"J  c #908DB0",
"K  c #9496B8",
"L  c #8B8FC0",
"P  c #9393C5",
"I  c #9598CD",
"U  c #9A9CC8",
"Y  c #9A9DD0",
"T  c #9EA2CA",
"R  c #A1A3C4",
"E  c #A9AAC6",
"W  c #A3A5C9",
"Q  c #A7ABCF",
"!  c #ABACCA",
"~  c #B2B3CF",
"^  c #A4A5D3",
"/  c #A7ADD0",
"(  c #AAADD4",
")  c #B2B5D4",
"_  c #B8BBD1",
"`  c #BABDD9",
"'  c #8EAEEB",
"]  c #84AAFF",
"[  c #88AEFF",
"{  c #89B0F6",
"}  c #8DB3FF",
"|  c #94B5F0",
" . c #9AB9F2",
".. c #91B4FF",
"X. c #94B9FF",
"o. c #9BBCFD",
"O. c #A1BFFF",
"+. c #BFC3DA",
"@. c #BFC8DF",
"#. c #9FC0FF",
"$. c #BBC6E0",
"%. c #BECBE6",
"&. c #BCCCEB",
"*. c #ABC5F2",
"=. c #A4C2FE",
"-. c #A9C7FF",
";. c #ADCAFF",
":. c #B3CAF5",
">. c #B8CCF2",
",. c #B3CDFE",
"<. c #BDD0F5",
"1. c #B6D0FF",
"2. c #BCD3FD",
"3. c #C5C9D6",
"4. c #CACCD7",
"5. c #C0C2DA",
"6. c #C6CBDB",
"7. c #CACDDB",
"8. c #CED1DC",
"9. c #D3D3DC",
"0. c #C4CCE3",
"q. c #C9CEE2",
"w. c #C0CFE8",
"e. c #CED5E6",
"r. c #C4D2ED",
"t. c #CAD6EC",
"y. c #CDD8EC",
"u. c #D3D6E2",
"i. c #D6D9E3",
"p. c #DBDBE3",
"a. c #C3D5F3",
"s. c #CADAF2",
"d. c #C2D6FE",
"f. c #C4D8FE",
"g. c #CDDEFE",
"h. c #D4DFF6",
"j. c #D1DFFA",
"k. c #DFE2EC",
"l. c #CFE0FF",
"z. c #D4E0F4",
"x. c #DBE3F4",
"c. c #D4E2FE",
"v. c #DAE6FD",
"b. c #DDE9FE",
"n. c #E2E1E4",
"m. c #E8E4E4",
"M. c #E4E5EB",
"N. c #E6E9EE",
"B. c #EAEAEE",
"V. c #FFF9EC",
"C. c #E3E7F3",
"Z. c #E5E9F3",
"A. c #EAECF2",
"S. c #E2EBFC",
"D. c #EEF1F6",
"F. c #E4F1FF",
"G. c #EDF3FC",
"H. c #EBF9FF",
"J. c #F3F3F5",
"K. c #F7F9F4",
"L. c ivory",
"P. c #F2F6FB",
"I. c #F4FCFF",
"U. c #FEFEFF",
"Y. c None",
/* pixels */
"Y.Y.Y.Y.Y.Y.Y.Y.Y.Y.Y.Y.Y.Y.Y.Y.Y.Y.Y.Y.Y.Y.Y.Y.Y.Y.Y.Y.Y.Y.Y.Y.",
"Y.Y.Y.Y.Y.Y.Y.Y.Y.Y.Y.Y.Y.Y.U.U.U.U.U.Y.Y.Y.Y.Y.Y.Y.Y.Y.Y.Y.Y.Y.",
"Y.Y.Y.Y.Y.Y.Y.Y.Y.Y.Y.U.v.g.c.f.f.f.c.v.U.U.Y.Y.Y.Y.Y.Y.Y.Y.Y.Y.",
"Y.Y.Y.Y.Y.Y.Y.Y.Y.I.d.=.} =.=.X.X.=.;.1.g.b.U.U.Y.Y.Y.Y.Y.Y.Y.Y.",
"Y.Y.Y.Y.Y.Y.Y.U.b...[ =.;.;.;.;.f.c.c.c.c.l.c.b.U.Y.Y.Y.Y.Y.Y.Y.",
"Y.Y.Y.Y.Y.Y.I.2.[ [ d.;.;.-.f.c.c.g.c.c.l.c.v.g.S.I.Y.Y.Y.Y.Y.Y.",
"Y.Y.Y.Y.Y.U.,.[ ..2.1.=.-.b.U.H.F.F.F.U.H.v.c.v.b.j.P.Y.Y.Y.Y.Y.",
"Y.Y.Y.Y.U.d.} O.;.2.=.-.F.q.M ) +.q.U j ` P.v.b.v.j.S.U.Y.Y.Y.Y.",
"Y.Y.Y.Y.S.} O.=.d.;.=.f.I./ 2 p I ^ ( , P U.z.c.v.S.h.P.U.Y.Y.Y.",
"Y.Y.Y.U.=.X.=.;.2.=.1.g.c.c.x.0.A Y C.D.I.U.U.I.b.x.x.b.U.Y.Y.Y.",
"Y.Y.Y.v.} -.=.2.;.-.g.l.l.c.H.H.h B I.U.+.T E e.G.C.S.h.D.U.Y.Y.",
"Y.Y.U.1.X.=.;.1.-.2.l.c.c.c.b.P.f n 6.a 1 @ @ O J U.x.C.x.U.Y.Y.",
"Y.Y.U.O.O.=.2.;.-.2.v.c.v.c.b.F.m d d < a W Z > 5.I.Z.S.x.S.Y.Y.",
"Y.Y.b.o.O.-.;.-.;.g.v.c.c.b.b.P.a 8 0 g J.U.U.U.P.x.x.C.C.P.U.Y.",
"Y.U.v.o.o.;.;.1.1.g.c.b.b.c.b.S.z w 1 Q U.h.S.P.v.Z.Z.A.k.D.U.Y.",
"Y.U.v.....;.;.;.1.S.v.c.j.b.I.H.U.` * r J.U.U.I.P.Z.C.C.Z.A.U.Y.",
"Y.U.v.D X.,.:.2.1.f.b.b.b.x.6.0.p.u.q = 6 K i ; _ P.A.A.C.D.U.Y.",
"Y.U.f.S #.,.,.;.<.S.v.z.I.) 5 8 * = 7 q # X X X G U.C.N.Z.A.U.Y.",
"Y.Y.S.{ #.<.<.f.:.g.S.x.U.) 3 s L F q $ l R R u.J.Z.N.A.M.J.U.Y.",
"Y.Y.Z.=.=.<.2.:.<.a.b.x.I.) % H U.U.! X u U.U.U.A.Z.B.N.N.J.Y.Y.",
"Y.Y.K.o.o.:.<.a.a.:.a.Z.U.) 1 e b c 9 o F U.C.Z.Z.M.B.B.B.J.Y.Y.",
"Y.Y.Y.z.{ s.<.:.>.a.r.z.U./ 4 4 + O O x U.N.M.N.N.B.B.M.B.J.Y.Y.",
"Y.Y.Y.L.*. .a.a.s.r.>.r.U.~ + k C.v X l U.M.N.N.M.n.M.M.A.Y.Y.Y.",
"Y.Y.Y.Y.N.| r.r.&.r.y.w.I.W X t U.U.:   y U.M.p.M.M.n.N.A.Y.Y.Y.",
"Y.Y.Y.Y.V.&.' t.t.r.w.%.x.9.F ~ A.K.p.V G M.M.n.n.p.n.N.Y.Y.Y.Y.",
"Y.Y.Y.Y.Y.B.%.%.%.0.e.e.0.e.U.K.i.i.B.U.U.p.p.p.p.p.N.Y.Y.Y.Y.Y.",
"Y.Y.Y.Y.Y.Y.m.i.%.0.0.0.q.e.6.6.8.p.p.i.9.p.p.p.p.p.Y.Y.Y.Y.Y.Y.",
"Y.Y.Y.Y.Y.Y.Y.n.u.6.@.q.7.6.6.7.8.7.4.8.9.9.9.9.p.Y.Y.Y.Y.Y.Y.Y.",
"Y.Y.Y.Y.Y.Y.Y.Y.Y.p.9.7.+.6.7.6.3.3.4.4.4.9.9.i.Y.Y.Y.Y.Y.Y.Y.Y.",
"Y.Y.Y.Y.Y.Y.Y.Y.Y.Y.Y.9.9.9.4.4.4.9.8.9.9.9.Y.Y.Y.Y.Y.Y.Y.Y.Y.Y.",
"Y.Y.Y.Y.Y.Y.Y.Y.Y.Y.Y.Y.Y.9.9.9.9.9.9.Y.Y.Y.Y.Y.Y.Y.Y.Y.Y.Y.Y.Y.",
"Y.Y.Y.Y.Y.Y.Y.Y.Y.Y.Y.Y.Y.Y.Y.Y.Y.Y.Y.Y.Y.Y.Y.Y.Y.Y.Y.Y.Y.Y.Y.Y."
};
