/* XPM */
static char *ccff8264117c4523adfcde8ac5e2d964[] = {
/* columns rows colors chars-per-pixel */
"64 64 256 2 ",
"   c #00003A",
".  c #00004D",
"X  c #000045",
"o  c #000054",
"O  c #00035B",
"+  c #050C5E",
"@  c #040C65",
"#  c #050965",
"$  c #0E156B",
"%  c #0A1066",
"&  c #131A6A",
"*  c #141B6E",
"=  c #141B74",
"-  c #1D2475",
";  c #1B237C",
":  c #1D236C",
">  c #27296D",
",  c #232975",
"<  c #242C7C",
"1  c #232A7A",
"2  c #2B327E",
"3  c #2C3075",
"4  c #393A76",
"5  c #171D82",
"6  c #1E2782",
"7  c #242B84",
"8  c #282F87",
"9  c #2B3284",
"0  c #2D338B",
"q  c #333986",
"w  c #353C8B",
"e  c #363C8D",
"r  c #2D349A",
"t  c #343B94",
"y  c #383F91",
"u  c #313896",
"i  c #232990",
"p  c #3339A1",
"a  c #3C428E",
"s  c #3C4285",
"d  c #3C4293",
"f  c #3D449B",
"g  c #3E44A4",
"h  c #464A8A",
"j  c #4D518F",
"k  c #444A95",
"l  c #444A9B",
"z  c #424996",
"x  c #4B509D",
"c  c #4A5094",
"v  c #535693",
"b  c #54568D",
"n  c #5E6199",
"m  c #66689B",
"M  c #6F7199",
"N  c #464CA3",
"B  c #494EA3",
"V  c #4147A8",
"C  c #4E54A1",
"Z  c #4B51AB",
"A  c #5156A4",
"S  c #545AA5",
"D  c #545AAB",
"F  c #595EAC",
"G  c #575CB1",
"H  c #5D62AF",
"J  c #5C61B2",
"K  c #6468A6",
"L  c #6E72A7",
"P  c #797CAD",
"I  c #7577AA",
"U  c #6469B7",
"Y  c #6E71B3",
"T  c #6C71B9",
"R  c #7B7CB4",
"E  c #7577B6",
"W  c #2972FE",
"Q  c #3274FF",
"!  c #397BFB",
"~  c #276FFF",
"^  c #7479C0",
"/  c #457CFF",
"(  c #487CFF",
")  c #4C7FE7",
"_  c #7E81B3",
"`  c #7D81BC",
"'  c #3E80FF",
"]  c #5A8CEC",
"[  c #4583FE",
"{  c #4B83FF",
"}  c #4D89FF",
"|  c #4680F1",
" . c #528DFF",
".. c #5A89FF",
"X. c #5691FF",
"o. c #5A92FF",
"O. c #759EEF",
"+. c #6D9BF5",
"@. c #6196FD",
"#. c #6499FE",
"$. c #6B9DFE",
"%. c #6895FF",
"&. c #729EF4",
"*. c #709FFF",
"=. c #7AA1EC",
"-. c #6FA1FF",
";. c #73A3FF",
":. c #78A6FD",
">. c #7CA9FF",
",. c #79A3F5",
"<. c #8484AF",
"1. c #8387B7",
"2. c #9596B8",
"3. c #8E91BB",
"4. c #A4A5BF",
"5. c #8A8CC3",
"6. c #8A8EC8",
"7. c #8D91C9",
"8. c #9194CA",
"9. c #9A9DCA",
"0. c #9B9FD1",
"q. c #9FA8CB",
"w. c #9AACD4",
"e. c #92AADD",
"r. c #9AAEDB",
"t. c #99A3D5",
"y. c #94ACDE",
"u. c #A3A4CB",
"i. c #A9ABC9",
"p. c #A5A8C5",
"a. c #A5B1CB",
"s. c #ACB3CB",
"d. c #ACB2C5",
"f. c #B2B4C1",
"g. c #B5B9CD",
"h. c #B9BCCB",
"j. c #B0B2CE",
"k. c #A9ACD7",
"l. c #A3B2D4",
"z. c #ABB6D7",
"x. c #B3BAD2",
"c. c #BBBCD3",
"v. c #B1B4DB",
"b. c #B4B9D9",
"n. c #83A4E6",
"m. c #89A6E2",
"M. c #81A5EC",
"N. c #8AABED",
"B. c #8BA9E5",
"V. c #93ACE3",
"C. c #9DB4E3",
"Z. c #9BB5EB",
"A. c #95B1E9",
"S. c #82ACFE",
"D. c #87ACF5",
"F. c #8BB3FD",
"G. c #8DB1F6",
"H. c #93B4F3",
"J. c #9DBBF4",
"K. c #91B6FE",
"L. c #96BBFF",
"P. c #9BBEFF",
"I. c #A6BBE6",
"U. c #A2BFFA",
"Y. c #B2BFE1",
"T. c #BEC1CD",
"R. c #BCC2D5",
"E. c #B9C1DC",
"W. c #9FC1FF",
"Q. c #ADC1EB",
"!. c #B6C4E4",
"~. c #BBCBED",
"^. c #B8C9E9",
"/. c #AAC3F3",
"(. c #A4C3FE",
"). c #AAC6FC",
"_. c #ADC9FD",
"`. c #B5CAF4",
"'. c #BACDF3",
"]. c #B4CDFD",
"[. c #BACEFC",
"{. c #B0C7F6",
"}. c #BED1F5",
"|. c #BBD2FD",
" X c #B6D1FF",
".X c #C2C5D4",
"XX c #CBCCD6",
"oX c #C6CADB",
"OX c #CBCDDB",
"+X c #C7C9D3",
"@X c #CED1DC",
"#X c #D3D4DD",
"$X c #D9D8DF",
"%X c #D8D8DF",
"&X c #C0C2CC",
"*X c #C4CBE2",
"=X c #CCCCE3",
"-X c #C2CEEA",
";X c #C4C5E2",
":X c #CCD2E3",
">X c #C4D2ED",
",X c #CCD5EA",
"<X c #CBD6EC",
"1X c #D3D6E3",
"2X c #D8D7E0",
"3X c #D6D9E3",
"4X c #DBDCE3",
"5X c #D2D6EA",
"6X c #D4DBEB",
"7X c #DBDEEA",
"8X c #D8D7E8",
"9X c #C4D5F4",
"0X c #CCDAF4",
"qX c #C2D5FD",
"wX c #C5D9FE",
"eX c #CBDCFE",
"rX c #C9D7F3",
"tX c #D3DDF3",
"yX c #D0DFFC",
"uX c #E0DFE5",
"iX c #DDE1EB",
"pX c #DFE0E7",
"aX c #CEE1FE",
"sX c #D6E1F6",
"dX c #DBE4F4",
"fX c #D4E2FD",
"gX c #DAE6FD",
"hX c #DDEAFE",
"jX c #D6EAFF",
"kX c #E3E2E6",
"lX c #E4E4EB",
"zX c #E6E8EE",
"xX c #EAE9ED",
"cX c #E9E5E7",
"vX c #F3ECE7",
"bX c #F1EEEE",
"nX c #F5F3EE",
"mX c #FCF5EC",
"MX c #FFFDED",
"NX c #E2E6F3",
"BX c #E4E9F4",
"VX c #ECEDF3",
"CX c #E4EDFD",
"ZX c #E9EFFB",
"AX c #F1EFF2",
"SX c #EDF1F5",
"DX c #E6F2FF",
"FX c #EBF2FE",
"GX c #F3F3F5",
"HX c #FAF6F1",
"JX c #FEFEF4",
"KX c #F3F6FC",
"LX c #F6F9FE",
"PX c #FEFEFE",
"IX c #F7F9F4",
"UX c None",
/* pixels */
"UXUXUXUXUXUXUXUXUXUXUXUXUXUXUXUXUXUXUXUXUXUXUXUXUXUXUXUXUXUXUXUXUXUXUXUXUXUXUXUXUXUXUXUXUXUXUXUXUXUXUXUXUXUXUXUXUXUXUXUXUXUXUXUX",
"UXUXUXUXUXUXUXUXUXUXUXUXUXUXUXUXUXUXUXUXUXUXUXUXUXUXUXUXUXUXUXUXUXUXUXUXUXUXUXUXUXUXUXUXUXUXUXUXUXUXUXUXUXUXUXUXUXUXUXUXUXUXUXUX",
"UXUXUXUXUXUXUXUXUXUXUXUXUXUXUXUXUXUXUXUXUXUXUXUXUXUXUXUXUXUXPXPXPXPXPXUXUXUXUXUXUXUXUXUXUXUXUXUXUXUXUXUXUXUXUXUXUXUXUXUXUXUXUXUX",
"UXUXUXUXUXUXUXUXUXUXUXUXUXUXUXUXUXUXUXUXUXUXUXUXUXUXPXPXPXPXPXPXPXPXPXPXPXPXPXUXUXUXUXUXUXUXUXUXUXUXUXUXUXUXUXUXUXUXUXUXUXUXUXUX",
"UXUXUXUXUXUXUXUXUXUXUXUXUXUXUXUXUXUXUXUXUXUXPXPXPXPXPXCXCXPXCX_.PXPX].LXPXLXPXPXPXPXUXUXUXUXUXUXUXUXUXUXUXUXUXUXUXUXUXUXUXUXUXUX",
"UXUXUXUXUXUXUXUXUXUXUXUXUXUXUXUXUXUXUXUXPXPXPXPXCX;.PXhX . XPX-.-.PX(.X.LXFX;.FXPXPXPXPXPXUXUXUXUXUXUXUXUXUXUXUXUXUXUXUXUXUXUXUX",
"UXUXUXUXUXUXUXUXUXUXUXUXUXUXUXUXUXUXPXPXPXPX;.W.PXX.X.LXZXX.P.PXS.#.PX_.o.PXP.>.PXaXqXPXPXPXPXUXUXUXUXUXUXUXUXUXUXUXUXUXUXUXUXUX",
"UXUXUXUXUXUXUXUXUXUXUXUXUXUXUXUXPXPXPX|.F.PX(.~ L.PX X} eXPX#.S.PXF.>.PX_._.PX].eXPXW.CXPXPXPXPXUXUXUXUXUXUXUXUXUXUXUXUXUXUXUXUX",
"UXUXUXUXUXUXUXUXUXUXUXUXUXUXUXPXPXhXPXgX( Q KXPX-.$.PXCX ._.PX$.W.PX(.wXPX_.eXPXP.FXKXP.PXgXwXPXPXPXUXUXUXUXUXUXUXUXUXUXUXUXUXUX",
"UXUXUXUXUXUXUXUXUXUXUXUXUXUXPXPXPX;.Q P.PX_.X.).PX(. .fXPXX. XPX(.eXPX(.fXPXP.FXKXW.PXeX|.PX).ZXPXPXPXUXUXUXUXUXUXUXUXUXUXUXUXUX",
"UXUXUXUXUXUXUXUXUXUXUXUXUXPXPXS.U.PXwX/ $.PXPX$.$.PXgX} eXPXL.fXPXW.fXPXP.ZXLXP.PXyX|.PX{.FXCX].PXPXPXPXUXUXUXUXUXUXUXUXUXUXUXUX",
"UXUXUXUXUXUXUXUXUXUXUXUXPXPXPXP.[ ( wXPX_.X._.PX(. .CXFXS.CXPXP.hXPXL.FXLXL.PXfX XPX_.CXFX].PX XhXPXwXPXPXUXUXUXUXUXUXUXUXUXUXUX",
"UXUXUXUXUXUXUXUXUXUXUXPXPX-.} eXPX|.o.>.PXPX$.$.PXwX-.FXFXL.gXLXL.CXFXL.LXfX).PX_.fXKX).PX|.fXPX_.PX|.yXPXPXUXUXUXUXUXUXUXUXUXUX",
"UXUXUXUXUXUXUXUXUXUXPXLXLXCXL.{ [ hXPX(.X._.PXL.@.PXDXwXPXPX XPXLXwXPXCXfXPXjXPXPXwXPXqXyXPX{.PX0XyXPX`.PXPXPXUXUXUXUXUXUXUXUXUX",
"UXUXUXUXUXUXUXUXUXPXPX).Q ;.yXPX|.$.:.PXPX#.;.PXwXL.LX4Xj.2XPXoXpXiX1XAXlXj.OXc.OXZXZXPX{.PXyXeXPX`.PXyX9XPXPXPXUXUXUXUXUXUXUXUX",
"UXUXUXUXUXUXUXUXPXPXfXZXFXL.( #.CXPX(.X.].PXF.S.PXjXFX_ i B E 9.1.6.8.9.u.u N t l VX|.PXgXqXPX{.PXgX9XPX'.FXPXPXUXUXUXUXUXUXUXUX",
"UXUXUXUXUXUXUXUXPXPX#.! ;.wXPXqX$.;.PXPX#.>.PXeXW.PXPX` Z U g T v.k.k.8.b.0.V D G PXDX'.PX{.KXZX'.PX'.KXZX}.PXPXPXUXUXUXUXUXUXUX",
"UXUXUXUXUXUXUXPXFXeXLXFXL.{ :.gXPX).X.|.PXS.P.PXeX(.LXR p G G p 0.Y.7.8.PXBXZ p B GXPX].ZXFX`.PX'.ZXFX'.PX}.BXPXPXPXUXUXUXUXUXUX",
"UXUXUXUXUXUXUXPXCX{ } -.wXPXwX$.;.PXLXo.S.PX|.(.PXeXeXxX,X5X7X5XJ 0.v.6.k.PXiX;X8XZXPXZX`.PX}.CXLX`.PX9XBXLX'.PXPXPXUXUXUXUXUXUX",
"UXUXUXUXUXUXPXFXeXLXZXL.} :.fXPX). .|.PXS._.PX X_.PXfXaXPXfXLXPXD ^ v.7.v.PXPXDXDXPX|.PXeXyXLX`.PXrXgXPX'.PXtXtXPXPXPXUXUXUXUXUX",
"UXUXUXUXUXUXPXgX[  .;.qXPXwX-.;.PXLXo.K.PX_.|.PX_.qXPX(.hXFX).KXR p v.7.VXPXCXPXLXPXLXPXPXPXPXjXyXPX'.PXtXtXPX~.PXPXPXUXUXUXUXUX",
"UXUXUXUXUXPXLXgXLXCXP. .;.fXPX(. .qXPX;.|.PX).wXPX(.hXPX(.PXhXjXR V E k.5.PXPXxXp.P L n m <.p.lXPXPXyXtXPX~.PXdXrXPXPXPXUXUXUXUX",
"UXUXUXUXUXPXFX .} ;.qXPXaX$.-.PXFXo.P.PX).eXPX(.gXPXP.PXfX XPXPXY D V 6.BXPX2.w 6 0 0 0 8 ; = 7 M 1XPX'.PXBXrXPX-XZXPXPXUXUXUXUX",
"UXUXUXUXPXPXFXFXCXP...$.fXPX(. .eXPX@. XPXP.jXPXL.PXgX XPX{.FXPXY Z G D IXL 5 B D C l y y a z ; O c.PXBX>XPX>XFXFX>XPXPXUXUXUXUX",
"UXUXUXUXPXPX:.[ :.[.PXfX$.;.PXDX .].PXW.CXPXL.LXhX_.PX].FXFX XPXY Z H U m t G S z 6 t k y ; = # i.PX0XPX>XSXKX>XPX,XBXPXPXUXUXUX",
"UXUXUXUXPXPXFXCX(...X.eXPX(. .fXPXX.].PXL.LXCX).PX XgXLX).PXeXjXE Z H D N A S e y u.7XVXzXg.h K PXPX>XBXPX~.PX6XNXPX-XLXPXUXUXUX",
"UXUXUXUXPXwX{ ;.[.PXgX$.-.PXhX} wXPX>.LXCX).PX|.fXPX).PX9XfXPXLXY B F G S A d y 7XPXPXCXZXPXPXPXsXdXPX~.PXtXdXPX-XPXNXZXPXUXUXUX",
"UXUXUXUXPXPXgX(.@.! wXPX(. .CXLX} fXLX(.PXqXeXPX).PXeXeXPX_.LXPXK N F A A A 7 b.PXeXtXLX'.PXCXBXPX~.PXiXtXPX-XPXiX7XPXPXPXUXUXUX",
"UXUXUXPXPXK.#.].PXCX$.-.PXaX[ hXFX} FXeXwXPX).PXyXwXPX{.LXfXeXPXS r l A A l l NXFXPX~.PXdX0XPX~.PXNX0XPX-XPXNX6XPX:XKXPXPXPXUXUX",
"UXUXUXPXPXCX(.%.Q P.PXW. .PXjX{ LXwX(.PX).LXgX|.PX{.LXgXqXPX|.FXR A K B x y z VXyXLXBX9XPX-XKXZXrXPX>XKXZX,XPX:XKXZX1XPXPXPXUXUX",
"UXUXUXPXPXK.(.PXFX#.;.PX|.} PXqX#.PX|.FXCX].PX`.FXCX[.PX`.FXKXfXPXPXGXx y l ; c.PX}.PX>XZXZXsXPX,XFXGX,XPX:XGXKX:XPX1XBXPXPXUXUX",
"UXUXUXPXPX].%.! >.PXL.o.PX|.#.PXF.).PX).PX XCXFX].PX'.gXFX{.PX9XhXPXPXY 7 c 0 8 4XPXPXPXCXPXLXPXKX-XPX,XZXLX:XPX1XZXLX6XPXPXUXUX",
"UXUXUXPXPX|.KXPX} #.PX_.#.PXH.W.PX@.LX9XgXLX_.PXqXfXPXjXPXFXPXPXDXPXPXiX0 e k 1 1 2.#XAXuX4.4 b PXiXNXLX>XPX6XBXPX:XPXLXPXPXUXUX",
"UXUXUXPXPXS.~ :.PXK.#.PXK.K.PX@.KX].(.PX{.PXwXsXPX{.PX1Xj..Xc.&Xc.c.g.oXK 8 y y 7 @ : , : O + . 2.PX,XPXiXiXPX:XPXiXiXPXPXLXUXUX",
"UXUXUXPXLXPXPX} ! PXH.F.PX@.CXwXD.PX].PXyXeXPX{.PXsXhXI 5 t 0 0 8 7 < < y h w q q q < - - 1 < +   +XKX6XPX@XPXzX7XPX@XGXPXLXUXUX",
"UXUXUXPXJX>.@.JX;.;.PX#.hXdX,.PX:.sXCX}.PX{.LXsX9XPXPX` f S A B l z d y y w q q 9 @ @ @ + o o & m 1XPX:XLXZX1XPX@XLXVXlXPXPXUXUX",
"UXUXUXUXLXKX[  .JX$.yXCX$.PX,.eXCX-.PX`.GXBX|.PX`.ZXPXR d A C d t 0 9 7 - q q 1 h 1.v j b I p.lXPXNXKXSX1XPX1XSXAX1XPXIXIXUXUXUX",
"UXUXUXUXIXLXPX[ G.PX@.JXG.].LX+.JXH.'.LX`.PX'.ZXZX|.PXR t x u q.8X1X1X=X_ - 9 - - KXPXPXPXPXPXZXGXVX:XPX1XSXGX1XPX3XNXPXIXUXUXUX",
"UXUXUXUXPXrX).JXW GX)./.PX+.JXJ./.PX&.JX9XhXGX`.PXrXFX<.u x 7 =XPXBXPXPXPXv $ 2 O i.PX5XPX,XBXSX:XPX1XzXKX1XPX3XzXLX3XPXIXUXUXUX",
"UXUXUXUXIXJX' BX).@.JX#.JX_.J.PX+.JX`.J.JX`.PX9XdXLXFX_ 0 l 7 oXPXCXLXPXPXh $ 2 O p.PX,XlXPX:XPX6XlXPX:XPX7XlXPX#XPXLXGXUXUXUXUX",
"UXUXUXUXUXJXP.} JXo.GX|.G.JX+.SX}.H.PXO.SXsXtXJX`.JXPXI 0 l 9 9.#XOXOX+XM $ 2 - @ OXLXPX,XPXiX4XPX:XPXiXpXPX@XPXlX2XPXGXUXUXUXUX",
"UXUXUXUXUXGXMX/ 9X0X,.JX&.NX0XN.JX,.BXtXN.PX`.JXtX0XPXI 8 l z 9 1 - - & % 2 2 . j PX1XLXiX3XPX:XLXlX3XPX@XLXzX4XPX4XGXGXUXUXUXUX",
"UXUXUXUXUXAXJX9X! MX,.sXgX,.JXD.sXdXM.JXN.0XVX>XPX-XKXP 7 d a w 9 9 9 2 2 2 % , lXPXiX1XPX:XGXzX3XPX1XAXxX3XPX#XVXLXVXUXUXUXUXUX",
"UXUXUXUXUXUXAXJX@.H.JX&.JXG.>XSX=.JXH.>XSXn.JX}.xXZXFXP 6 d a 9 = = $ < 3 % w PXPX1XPX:XxXVX1XPX1XxXVX#XPX#XVXVX%XGXAXUXUXUXUXUX",
"UXUXUXUXUXUXVXHXBX! MXJ.^.IXO.JXJ.~.JX=.JXI.~.IX~.JXPXL ; a < 5.oX=X1.@ 1 & : lXPX:XzXVX@XPX1XlXAX@XPX%XcXAX#XIXxXVXAXUXUXUXUXUX",
"UXUXUXUXUXUXUXxXMXD.O.MX&.MX/.Q.JX=.JXQ.Q.JXn.IX,X7XPXL ; w = c.PXPXPXj O 2 O 3 PXGXOXPX3XiXGX:XLX$XpXGX#XLX4X4XGXVXUXUXUXUXUXUX",
"UXUXUXUXUXUXUXxXbXIX| lX9XZ.JX=.nX~.Z.JXn.nX-XI.JX~.PXL ; w = c.FX3XPXlX@ $ , X I PX4X3XGX@XGX4X4XGX@XGX4X4XAXiXVXxXUXUXUXUXUXUX",
"UXUXUXUXUXUXUXUXzXMX/.] JX=.VX>XA.JXn.xX<XA.JXV.lXNXZXn # - O i.PX-XcXPX2.X + o   i.PX@XAXpX3XGX@XAXpX2XGX#XxXAXxXUXUXUXUXUXUXUX",
"UXUXUXUXUXUXUXUXzXxXMX] ~.cXB.JXN.7X6XV.JXV.iXiXy.MXLX<.q j 4 x.PX1X:XIXPXn 3 s > h LXlX#XGX@XxXlX#XGX#XlXcXpXxXUXUXUXUXUXUXUXUX",
"UXUXUXUXUXUXUXUXUXlXmX,X| MXA.,XzXm.MXA.,XzXe.JXC.*XmXiXPXAXKXzX4XbX:XuXbXLXIXSXIXxX4XAX@XlXlX#XGX#XlXlX#XVXcXlXUXUXUXUXUXUXUXUX",
"UXUXUXUXUXUXUXUXUXUX7XMXB.V.nXn.MXC.-XbXm.MXI.R.bXe.mXY.:XVX:XbX*XiXlX*XbX@XcXcX2XHX@XpXlX@XAX#X4XlXXXxXkXiXlXUXUXUXUXUXUXUXUXUX",
"UXUXUXUXUXUXUXUXUXUXUXkXnXy.kXQ.Y.mXm.mXY.Y.nXe.mX!.E.bXw.vX,X4XcXoXbX@X3XlXOXVX@X3XlXXXxX#X2XlXXXzX4X2XlXkXUXUXUXUXUXUXUXUXUXUX",
"UXUXUXUXUXUXUXUXUXUXUXUXkXkX3XcXV.vX!.z.mXe.vX!.z.mXw.xXE.R.nXz.lX:X3XxXoXcX1X#XcXOXcX1X#XcXOXzX$X#XlXpX4XUXUXUXUXUXUXUXUXUXUXUX",
"UXUXUXUXUXUXUXUXUXUXUXUXUXkX4XvX!.r.mXy.kX=Xl.MXw.kX:Xz.HXl.uX@Xs.HXR.4X3X@XzXoXlX%X@XzXXXlX$XXXkX$XpX4XUXUXUXUXUXUXUXUXUXUXUXUX",
"UXUXUXUXUXUXUXUXUXUXUXUXUXUX4X$XcXC.1X,Xw.MXr.$X1Xl.mXl.%X1Xa.IXs.%X1Xs.nXT.#X4X+XxX+X4X4X&X4X%X4XuX3XUXUXUXUXUXUXUXUXUXUXUXUXUX",
"UXUXUXUXUXUXUXUXUXUXUXUXUXUXUX3X4X2XOXvXl.oX8Xw.mXz.OX3Xa.bXz.XX4Xs.bXg.OX$Xd.VXh.XX4Xf.lX+X#X4X%XUXUXUXUXUXUXUXUXUXUXUXUXUXUXUX",
"UXUXUXUXUXUXUXUXUXUXUXUXUXUXUXUXUX2X4X4X@Xl.vXz.R.uXq.vXx..XkXa.xXR.R.kXd.xXT.R.lXf.4XXXXXlX3X%XUXUXUXUXUXUXUXUXUXUXUXUXUXUXUXUX",
"UXUXUXUXUXUXUXUXUXUXUXUXUXUXUXUXUXUX%X#X$X1X%X1Xl.cXE.x.kXa.cXR.T.kXd.kX+Xh.kXf.2X#XXX4X%X#XUXUXUXUXUXUXUXUXUXUXUXUXUXUXUXUXUXUX",
"UXUXUXUXUXUXUXUXUXUXUXUXUXUXUXUXUXUXUXUX%X%X#X%X#X@X%Xx.kX.Xg.kXs.4X+Xh.kXT.4X#XXX2X3X#XUXUXUXUXUXUXUXUXUXUXUXUXUXUXUXUXUXUXUXUX",
"UXUXUXUXUXUXUXUXUXUXUXUXUXUXUXUXUXUXUXUXUXUXUX#X%X#X#X$XOX%XOX%X@XXX%X@X#X%X@X%X%X#XUXUXUXUXUXUXUXUXUXUXUXUXUXUXUXUXUXUXUXUXUXUX",
"UXUXUXUXUXUXUXUXUXUXUXUXUXUXUXUXUXUXUXUXUXUXUXUXUXUXUX#X#X#X#X@X%X#X#X#X@X#XUXUXUXUXUXUXUXUXUXUXUXUXUXUXUXUXUXUXUXUXUXUXUXUXUXUX",
"UXUXUXUXUXUXUXUXUXUXUXUXUXUXUXUXUXUXUXUXUXUXUXUXUXUXUXUXUXUXUXUXUXUXUXUXUXUXUXUXUXUXUXUXUXUXUXUXUXUXUXUXUXUXUXUXUXUXUXUXUXUXUXUX",
"UXUXUXUXUXUXUXUXUXUXUXUXUXUXUXUXUXUXUXUXUXUXUXUXUXUXUXUXUXUXUXUXUXUXUXUXUXUXUXUXUXUXUXUXUXUXUXUXUXUXUXUXUXUXUXUXUXUXUXUXUXUXUXUX",
"UXUXUXUXUXUXUXUXUXUXUXUXUXUXUXUXUXUXUXUXUXUXUXUXUXUXUXUXUXUXUXUXUXUXUXUXUXUXUXUXUXUXUXUXUXUXUXUXUXUXUXUXUXUXUXUXUXUXUXUXUXUXUXUX"
};
