<?xml version="1.0" encoding="utf-8"?>
<!-- Generator: Adobe Illustrator 22.1.0, SVG Export Plug-In . SVG Version: 6.00 Build 0)  -->
<svg version="1.1" id="Layer_2" xmlns="http://www.w3.org/2000/svg" xmlns:xlink="http://www.w3.org/1999/xlink" x="0px" y="0px"
	 width="841.9px" height="595.3px" viewBox="0 0 841.9 595.3" style="enable-background:new 0 0 841.9 595.3;" xml:space="preserve"
	>
<style type="text/css">
	.st0{fill:none;stroke:url(#SVGID_1_);stroke-width:30.7764;stroke-linecap:round;stroke-linejoin:round;stroke-miterlimit:10;}
</style>
<radialGradient id="SVGID_1_" cx="423.9879" cy="313.6558" r="239.2113" gradientTransform="matrix(1 0 0 2.1 0 -654.83)" gradientUnits="userSpaceOnUse">
	<stop  offset="0" style="stop-color:#272885"/>
	<stop  offset="1" style="stop-color:#000000"/>
</radialGradient>
<path class="st0" d="M501.9,238.6c-68.5-68.8-123.5-95.7-123.5-95.7l33.4-52.5c0,0,69.5,31.1,137.7,99.5
	c77.8,78.1,98.8,194.9,98.8,194.9S542.1,278.9,501.9,238.6z M260.8,526.5l333.7-334.3l-50.3-50.9L210.2,475.9
	c-13.9,13.9-14,36.5-0.1,50.5l0,0C224,540.5,246.8,540.5,260.8,526.5z M475,210.5l50.9,49.8l55.4-55.5L530.4,155L475,210.5z"/>
</svg>
