<?xml version="1.0" encoding="utf-8"?>
<!-- Generator: Adobe Illustrator 22.1.0, SVG Export Plug-In . SVG Version: 6.00 Build 0)  -->
<svg version="1.1" id="ICON" xmlns="http://www.w3.org/2000/svg" xmlns:xlink="http://www.w3.org/1999/xlink" x="0px" y="0px"
	 width="512px" height="512px" viewBox="0 0 512 512" style="enable-background:new 0 0 512 512;" xml:space="preserve">
<style type="text/css">
	.st0{fill-rule:evenodd;clip-rule:evenodd;fill:url(#SVGID_1_);}
	.st1{clip-path:url(#SVGID_3_);}
	.st2{fill:#FFFFFF;}
	.st3{fill:url(#SVGID_4_);}
	.st4{fill:url(#SVGID_5_);}
	.st5{fill:url(#SVGID_6_);}
	.st6{fill:url(#SVGID_7_);}
	.st7{fill:url(#SVGID_8_);}
	.st8{fill:url(#SVGID_9_);}
	.st9{fill:url(#SVGID_10_);}
	.st10{fill:url(#SVGID_11_);}
	.st11{fill:url(#SVGID_12_);}
	.st12{fill:url(#SVGID_13_);}
	.st13{fill:url(#SVGID_14_);}
	.st14{fill:url(#SVGID_15_);}
	.st15{fill:url(#SVGID_16_);}
	.st16{fill:url(#SVGID_17_);}
	.st17{fill:url(#SVGID_18_);}
	.st18{fill:url(#SVGID_19_);}
	.st19{fill:url(#SVGID_20_);}
	.st20{fill:url(#SVGID_21_);}
	.st21{fill:url(#SVGID_22_);}
	.st22{fill:url(#SVGID_23_);}
	.st23{fill:url(#SVGID_24_);}
	.st24{fill:url(#SVGID_25_);}
	.st25{fill:url(#SVGID_26_);}
	.st26{fill:url(#SVGID_27_);}
	.st27{fill:url(#SVGID_28_);}
	.st28{fill:url(#SVGID_29_);}
	.st29{fill:url(#SVGID_30_);}
	.st30{fill:url(#SVGID_31_);}
	.st31{fill:url(#SVGID_32_);}
	.st32{fill:url(#SVGID_33_);}
	.st33{fill:url(#SVGID_34_);}
	.st34{fill:url(#SVGID_35_);}
	.st35{fill:url(#SVGID_36_);}
	.st36{fill:url(#SVGID_37_);}
	.st37{fill:url(#SVGID_38_);}
	.st38{fill:url(#SVGID_39_);}
	.st39{fill:url(#SVGID_40_);}
	.st40{fill:url(#SVGID_41_);}
	.st41{fill:url(#SVGID_42_);}
	.st42{fill:url(#SVGID_43_);}
	.st43{fill:url(#SVGID_44_);}
	.st44{fill:url(#SVGID_45_);}
	.st45{fill:url(#SVGID_46_);}
	.st46{fill:url(#SVGID_47_);}
	.st47{fill:url(#SVGID_48_);}
	.st48{fill:url(#SVGID_49_);}
	.st49{fill:url(#SVGID_50_);}
	.st50{fill:url(#SVGID_51_);}
	.st51{fill:url(#SVGID_52_);}
	.st52{fill:url(#SVGID_53_);}
	.st53{fill:url(#SVGID_54_);}
	.st54{fill:url(#SVGID_55_);}
	.st55{fill:url(#SVGID_56_);}
	.st56{fill:url(#SVGID_57_);}
	.st57{clip-path:url(#SVGID_3_);fill:#FFFFFF;}
	.st58{clip-path:url(#SVGID_3_);fill:url(#SVGID_58_);}
	.st59{opacity:0.6;clip-path:url(#SVGID_3_);}
	.st60{fill:#18196C;}
</style>
<linearGradient id="SVGID_1_" gradientUnits="userSpaceOnUse" x1="256.7276" y1="95" x2="256.7276" y2="507.0063">
	<stop  offset="0.2557" style="stop-color:#FFFFFF"/>
	<stop  offset="1" style="stop-color:#D1D1DB"/>
</linearGradient>
<path class="st0" d="M256.7277,1.2395c140.9505,0,255.2135,114.263,255.2135,255.2136S397.6781,511.6667,256.7277,511.6667
	S1.5141,397.4036,1.5141,256.4531S115.7771,1.2395,256.7277,1.2395z"/>
<g id="maska">
	<g>
		<defs>
			<path id="SVGID_2_" d="M256.7277,17.8997c131.7493,0,238.5534,106.8041,238.5534,238.5534S388.477,495.0065,256.7277,495.0065
				S18.1743,388.2025,18.1743,256.4531S124.9783,17.8997,256.7277,17.8997z"/>
		</defs>
		<clipPath id="SVGID_3_">
			<use xlink:href="#SVGID_2_"  style="overflow:visible;"/>
		</clipPath>
		<g class="st1">
			<path class="st2" d="M348.0692,457.9959c-0.9717,0.0305-1.9482,0.0411-2.9234,0.0573l-25.1353-43.5992h-2.596l35.6849,61.8984
				c0.2102-0.0939,0.4191-0.1902,0.6289-0.2847l0.0044,0.0077c0.2864-0.1289,0.5685-0.2654,0.8538-0.3963
				c0.1903-0.0867,0.3815-0.1717,0.5717-0.2588l-0.003-0.0051c0.7779-0.3601,1.5574-0.7172,2.3324-1.0825L348.0692,457.9959z"/>
			<path class="st2" d="M361.7282,73.7573l129.5857,224.5929c0.1977-1.1639,0.3986-2.3267,0.5793-3.4963L363.6613,72.6077
				c-7.6555-12.49-16.0414-24.5366-25.066-36.0924c0.9133-0.0134,1.8248-0.0347,2.7414-0.0347c0.1021,0,0.2032,0.0037,0.3052,0.0039
				c-0.5403-0.6945-1.0746-1.3936-1.6196-2.0845c-2.4641-0.929-4.9411-1.8315-7.4432-2.6806
				c0.0058,0.007,0.0113,0.0142,0.0171,0.0213c-0.3096-0.1059-0.6163-0.2179-0.9268-0.3218
				C342.6227,44.8513,352.6822,58.9993,361.7282,73.7573z"/>
			<path class="st2" d="M388.839,452.739c-0.8716,0.2007-1.7498,0.3838-2.6263,0.5717l-57.126-99.0696
				c-0.5172,0.5846-1.0504,1.1607-1.5993,1.7286l58.9226,102.1855c0.6285-0.4112,1.2575-0.8217,1.8819-1.2387l-0.0059-0.0102
				c0.7123-0.4739,1.4269-0.9445,2.133-1.4271L388.839,452.739z"/>
			<path class="st2" d="M286.6156,98.5182h0.8728h1.5779h0.3051c-10.896-15.2062-23.1046-29.4865-36.4299-42.6433
				c0.7295-0.3391,1.4557-0.6842,2.1905-1.0139c-11.5371-11.3581-23.9027-21.8747-36.972-31.4232
				c1.6325-0.7157,3.2707-1.421,4.9188-2.1076c-0.0004-0.0003-0.0007-0.0005-0.0011-0.0008
				c-2.1607,0.2954-4.3095,0.6273-6.4516,0.9788c-0.0021-0.0015-0.0042-0.0031-0.0064-0.0047
				c-0.3857,0.0636-0.7672,0.1388-1.1523,0.2041c-0.5511,0.0932-1.1018,0.1872-1.6516,0.2843
				c-0.0089-0.0064-0.0175-0.0131-0.0264-0.0195c-0.4857,0.086-0.968,0.1817-1.4515,0.2739
				c-0.0794,0.0146-0.1597,0.0265-0.2391,0.0411c0.0015,0.001,0.0029,0.0021,0.0044,0.0031
				c-0.3738,0.0716-0.7486,0.1401-1.1225,0.2118c-0.0166,0.0031-0.0335,0.0057-0.05,0.0089
				c0.0002,0.0002,0.0004,0.0003,0.0006,0.0005c-0.067,0.0128-0.1343,0.0252-0.2013,0.038
				C239.9109,44.0485,265.6746,69.5756,286.6156,98.5182z"/>
			<path class="st2" d="M330.9831,96.3477l1.2522,2.1705h2.5963l-1.9154-3.3201c-11.5768-18.8875-24.9483-36.6888-39.8269-53.1411
				c0.8657-0.2029,1.7286-0.4129,2.5985-0.605c-6.7808-7.4995-13.8747-14.7186-21.2556-21.6316
				c-1.158-0.0895-2.324-0.1495-3.4864-0.223c-0.0021-0.0019-0.0041-0.0039-0.0062-0.0059
				c-0.3486-0.0219-0.6982-0.0396-1.0468-0.0615c-0.6644-0.039-1.3245-0.094-1.9904-0.1273c0.004,0.0037,0.008,0.0074,0.012,0.0111
				c-0.1718-0.009-0.3426-0.022-0.5146-0.0302C292.0449,41.9501,313.5583,67.9198,330.9831,96.3477z"/>
			<path class="st2" d="M306.2394,24.4597c-1.2952-0.2786-2.5946-0.5455-3.8969-0.8045c-0.0011-0.0012-0.0022-0.0025-0.0034-0.0037
				c-1.0205-0.2017-2.0432-0.397-3.0677-0.5877c-0.0003-0.0001-0.0005-0.0001-0.0009-0.0002
				c-0.2374-0.0442-0.4731-0.0932-0.7109-0.1362c18.054,18.9855,34.1303,39.83,47.7965,62.1253l44.7041,77.4836
				c1.1496,0.4554,2.2903,0.9275,3.4178,1.4237l-46.1888-80.0568c-9.8461-16.0635-20.9348-31.3752-33.1018-45.7885
				c0.9336-0.115,1.8647-0.2375,2.8019-0.3407C314.1749,33.2478,310.2611,28.8045,306.2394,24.4597z"/>
			<path class="st2" d="M325.9106,457.5495c-1.0396-0.0752-2.0728-0.1724-3.1079-0.2634l-24.6902-42.832h-2.5959l39.773,68.9976
				c0.7191-0.2538,1.442-0.4996,2.1579-0.7601l-0.01-0.0173c0.8144-0.2963,1.6305-0.589,2.4408-0.8938L325.9106,457.5495z"/>
			<path class="st2" d="M196.251,26.5653c-1.8954,0.4857-3.7779,1.0026-5.6535,1.5362c-0.0045-0.0029-0.0089-0.0059-0.0134-0.0088
				c-0.8277,0.2341-1.647,0.4881-2.4707,0.7318c-0.0013-0.0008-0.0026-0.0017-0.0039-0.0025
				c-0.6433,0.1895-1.2854,0.3817-1.9277,0.5734c-0.0002,0.0001-0.0004,0.0001-0.0005,0.0002
				c-0.2848,0.0851-0.571,0.1671-0.8549,0.2543c-0.0011,0.0003-0.0022,0.0006-0.0034,0.001
				c-0.0262,0.0081-0.0527,0.0154-0.0788,0.0235c29.3729,18.4124,55.6037,41.8369,77.2845,68.8438h2.8701
				c-9.3466-11.778-19.5421-22.8924-30.483-33.221c0.6659-0.3921,1.3282-0.7897,1.9996-1.1733
				c-12.0468-11.3216-24.9888-21.6875-38.6606-30.9691c1.477-0.7993,2.9598-1.5894,4.4547-2.3596
				C200.5729,29.3602,198.4223,27.9466,196.251,26.5653z"/>
			<path class="st2" d="M255.498,497.0255c0.0832,0.0001,0.1657,0.0031,0.2489,0.0031c0.3128,0,0.6241-0.0071,0.9358-0.0118
				c1.4464-0.006,2.8901-0.0237,4.3304-0.0548l-47.0608-81.6878c-0.3553-0.2699-0.7044-0.5474-1.0574-0.8201h-2.7366h-2.2301
				L255.498,497.0255z"/>
			<polygon class="st2" points="246.2827,248.6006 243.6868,248.6006 252.6462,264.1397 255.2421,264.1397 			"/>
			<path class="st2" d="M247.9991,436.3611c-1.4028-0.6939-2.7952-1.4052-4.1817-2.1265l-11.3976-19.7805h-2.5952l47.0384,81.6353
				c0.8233-0.0721,1.6481-0.1388,2.469-0.2192l-0.0103-0.0179c0.9326-0.0907,1.8664-0.1769,2.7957-0.2789L247.9991,436.3611z"/>
			<path class="st2" d="M302.2409,454.4805c-1.1199-0.2101-2.2307-0.4452-3.3441-0.6731l-44.9364-77.9643v4.5036l62.7257,108.829
				c0.2293-0.0603,0.4571-0.124,0.6858-0.1856c0.0014-0.0004,0.0029-0.0008,0.0044-0.0012
				c0.5187-0.1397,1.0376-0.2793,1.5555-0.4209l-0.0016-0.0028c0.8527-0.2295,1.7072-0.4546,2.5547-0.6966L302.2409,454.4805z"/>
			<path class="st2" d="M276.5869,447.9673c-1.2328-0.3975-2.4514-0.8258-3.6743-1.2451l-18.9523-32.8868v0.6186h-2.2388
				l45.5135,78.9768c0.2399-0.042,0.4784-0.0877,0.7177-0.131l0.0064,0.0111c0.487-0.0868,0.9696-0.1861,1.4549-0.278
				c0.0564-0.0105,0.1128-0.0204,0.1692-0.0309l-0.0007-0.0013c0.8881-0.1688,1.7775-0.3341,2.6635-0.5089L276.5869,447.9673z"/>
			<path class="st2" d="M45.1788,240.6888c2.1146,0.8983,4.1411,1.8785,6.0523,2.9456c0.4346,0.261,0.8706,0.5209,1.291,0.7918
				c13.18,8.1725,24.4237,19.4698,32.4992,32.6443L209.0555,492.455c0.2967,0.0587,0.5949,0.1132,0.892,0.1709v0.0001
				c0.0012,0.0002,0.0025,0.0005,0.0036,0.0007c0.6734,0.1306,1.3464,0.2623,2.0218,0.3873l-0.0116-0.02
				c1.1001,0.2043,2.1979,0.4149,3.3035,0.6036L89.6288,275.4321c-8.3496-13.622-19.9521-25.2804-33.5225-33.6954
				c-0.6335-0.4082-1.2828-0.8043-1.9442-1.1908c0.1836-1.3642,0.3761-2.7256,0.5817-4.0828
				c-11.0769-5.2179-24.5393-8.094-35.9253-9.6754c-0.1041,0.7958-0.1976,1.5949-0.294,2.3931
				c-0.0003-0.0001-0.0007-0.0001-0.0011-0.0002c-0.0053,0.0439-0.0098,0.088-0.0151,0.1319
				c-0.1055,0.8784-0.2057,1.7583-0.3017,2.6396c-0.0291,0.255-0.0605,0.5093-0.0875,0.7649h0.0001
				c-0.0221,0.2059-0.0493,0.4102-0.0705,0.6163c0.0034,0.0006,0.0069,0.0012,0.0102,0.0018
				c-0.0344,0.3346-0.074,0.6676-0.107,1.0026C26.5907,235.5444,36.4044,237.5071,45.1788,240.6888z"/>
			<path class="st2" d="M66.9398,187.1507c0.016-0.0459,0.0337-0.0909,0.0497-0.1369c4.8383,1.8379,9.4454,3.9314,13.6616,6.3175
				c0.7474,0.4441,1.491,0.891,2.2106,1.3546c19.5769,12.1398,36.2761,28.9195,48.2776,48.4996l70.0051,121.494v-4.504
				l-68.072-118.1392c-0.7645-1.2474-1.5478-2.4834-2.3493-3.7078c0.0603-1.3802,0.1297-2.7581,0.2139-4.1321
				c-11.7638-16.8762-27.0133-31.3618-44.4916-42.2001c-5.4043-3.4817-11.5428-6.4112-18.0372-8.8901
				c0.3805-1.0416,0.7435-2.0916,1.1356-3.1277c-11.9738-4.1336-24.8439-6.8551-36.5321-8.6314
				c-0.305,0.7828-0.5979,1.5714-0.8938,2.3586c-0.0009-0.0002-0.0018-0.0003-0.0027-0.0005
				c-0.0316,0.0837-0.0611,0.1684-0.0926,0.252c-0.1295,0.3457-0.2645,0.6888-0.3923,1.0352
				c-0.0014-0.0002-0.0028-0.0005-0.0042-0.0007c-0.2633,0.71-0.5208,1.4225-0.7775,2.1356
				c0.0028,0.0005,0.0057,0.0011,0.0085,0.0015c-0.0716,0.1988-0.1474,0.3955-0.2185,0.5945
				c0.0024,0.0004,0.0049,0.0009,0.0073,0.0013c-0.1162,0.3262-0.2368,0.6502-0.3519,0.9769
				C42.0017,180.4131,55.0085,183.066,66.9398,187.1507z"/>
			<path class="st2" d="M73.8739,169.1975c0.0243-0.0569,0.0498-0.113,0.0741-0.1699c5.8971,2.1761,11.5049,4.6884,16.596,7.5854
				c0.8226,0.4891,1.6388,0.9828,2.431,1.4932c21.7081,13.461,40.2259,32.0685,53.5368,53.7839l54.6326,94.8006v-4.5034
				l-52.6995-91.4463c-4.3649-7.1214-9.2869-13.9046-14.6818-20.2935c0.1761-0.9987,0.3435-2.0006,0.5336-2.9945
				c-10.9212-12.4537-23.6731-23.3148-37.7379-32.0359c-6.2502-4.0269-13.3876-7.3869-20.9374-10.2058
				c0.4547-1.0164,0.9127-2.0309,1.3781-3.0415c-11.8026-4.0475-24.3855-6.8515-36.115-8.7926
				c-0.3849,0.7885-0.7592,1.5829-1.1357,2.376c-0.0019-0.0004-0.0038-0.0007-0.0057-0.001
				c-0.0877,0.1848-0.1721,0.3715-0.2598,0.5564c-0.2317,0.4912-0.4611,0.9837-0.6895,1.4767
				c-0.2998,0.6401-0.6057,1.2769-0.8972,1.9216c0.0056,0.001,0.0112,0.0021,0.0167,0.003
				c-0.1388,0.3068-0.2826,0.6108-0.4201,0.9182C49.2796,162.488,62.0276,165.2155,73.8739,169.1975z"/>
			<path class="st2" d="M61.2632,205.5573c0.0041-0.0149,0.0086-0.0296,0.0127-0.0445c3.3478,1.3691,6.5475,2.8848,9.5296,4.5644
				c0.6561,0.3903,1.3108,0.7818,1.9429,1.189c17.4433,10.8163,32.3244,25.7687,43.0185,43.2143l85.3776,148.1982v-4.5048
				l-68.0859-118.183c-0.3486-2.2515-0.6736-4.5108-0.9523-6.7847l-11.7324-20.3649
				c-10.9678-17.8932-26.2071-33.2062-44.0413-44.2646c-4.2132-2.7144-8.9257-5.053-13.9108-7.0778
				c0.3133-1.0917,0.6089-2.1909,0.9355-3.277c-11.9576-4.3024-25.0436-6.9727-36.6062-8.6197
				c-0.2329,0.7801-0.456,1.5643-0.6818,2.3474c-0.0052-0.0009-0.0106-0.0018-0.0158-0.0026
				c-0.1038,0.3612-0.1984,0.7262-0.2995,1.0885c-0.0187,0.0662-0.0388,0.1319-0.0575,0.198
				c-0.0031-0.0005-0.0062-0.0011-0.0093-0.0016c-0.2027,0.7206-0.3912,1.4469-0.5873,2.1702
				c0.0009,0.0002,0.0018,0.0003,0.0027,0.0005c-0.0552,0.2051-0.114,0.4088-0.169,0.614c0.0007,0.0001,0.0014,0.0002,0.0022,0.0004
				c-0.091,0.3385-0.1873,0.6748-0.2766,1.0139C36.2381,198.634,49.45,201.2676,61.2632,205.5573z"/>
			<path class="st2" d="M36.7024,258.0995c1.6541,0.7098,3.2425,1.4798,4.7461,2.3137c0.3231,0.1954,0.6472,0.3902,0.9608,0.5923
				c11.0478,6.8517,20.4729,16.3212,27.2395,27.3604l113.6996,197.485c0.3203,0.1017,0.6431,0.1979,0.9641,0.2979l0.0107,0.0186
				c0.517,0.1617,1.0407,0.3081,1.5592,0.4665c0.2078,0.0633,0.4143,0.1294,0.6222,0.1923l-0.0042-0.0074
				c1.1888,0.3598,2.3744,0.7271,3.5712,1.0685L74.2558,286.7275c-5.7614-9.4002-13.3614-17.688-22.1997-24.2771
				c0.0924-1.696,0.1953-3.3892,0.322-5.0759c-0.2582-0.164-0.5128-0.334-0.7727-0.4951
				c-9.6342-6.2069-23.1059-9.4619-34.5096-11.1727c-0.0795,1.561-0.1344,3.1283-0.18,4.698
				c-0.0199,0.4687-0.0414,0.937-0.0535,1.4076c0.0036,0.0007,0.0073,0.0015,0.0109,0.0022
				c-0.0054,0.1942-0.0158,0.387-0.0204,0.5814c0.0039,0.0007,0.008,0.0015,0.012,0.0023
				c-0.0069,0.3086-0.0177,0.6163-0.0237,0.9252C23.2824,254.3229,30.3079,255.8313,36.7024,258.0995z"/>
			<path class="st2" d="M365.4227,156.0434c0.9415,0.1169,1.8813,0.2393,2.8155,0.3801l-29.2429-50.6881v1.7968v2.7034
				L365.4227,156.0434z"/>
			<path class="st2" d="M82.0816,151.6808c0.0282-0.055,0.0577-0.1093,0.0859-0.1643c6.5098,2.4086,12.6983,5.1901,18.3091,8.4003
				c0.8843,0.5266,1.7592,1.06,2.6114,1.6091c23.8402,14.7831,44.1768,35.218,58.7965,59.0692l39.26,68.1161v-4.5032
				l-37.327-64.7621c-7.0222-11.4569-15.3543-22.118-24.7308-31.7701c0.2472-0.8351,0.4873-1.6732,0.7433-2.5045
				c-10.0004-10.012-21.143-18.8847-33.1578-26.3351c-6.7407-4.3427-14.4228-7.9794-22.5518-11.0386
				c0.532-0.9942,1.0673-1.9864,1.6092-2.9745c-11.4728-4.0114-23.6576-6.9421-35.2998-9.0704
				c-0.4746,0.7949-0.9385,1.5968-1.4043,2.3975c-0.0039-0.0007-0.0078-0.0017-0.0117-0.0024
				c-0.1355,0.233-0.2646,0.47-0.399,0.7037c-0.1148,0.1987-0.2311,0.3964-0.3452,0.5954
				c-0.0039-0.0008-0.0079-0.0016-0.0118-0.0024c-0.3895,0.6799-0.7646,1.3688-1.1476,2.0528
				c0.0013,0.0002,0.0026,0.0006,0.0038,0.0008c-0.0988,0.1769-0.2012,0.3514-0.2997,0.5285
				c0.001,0.0002,0.0019,0.0004,0.0029,0.0006c-0.157,0.2819-0.3188,0.5606-0.4746,0.8433
				C58.0974,144.9055,70.4928,147.7435,82.0816,151.6808z"/>
			<path class="st2" d="M114.6147,102.0729c0.0002-0.0002,0.0003-0.0004,0.0005-0.0006c5.0471,2.1437,9.888,4.486,14.4354,7.0477
				c1.4903,0.8663,2.956,1.7506,4.377,2.6661c30.2352,18.749,56.0282,44.666,74.5749,74.9236l35.674,61.873v-4.5023l-33.741-58.5202
				c-12.2225-19.9408-27.5654-37.9889-45.2119-53.3928c0.4006-0.6094,0.796-1.2225,1.201-1.8287
				c-9.0791-7.8092-18.7426-14.9354-28.9133-21.2421c-5.9883-3.858-12.6075-7.276-19.623-10.3114
				c0.8205-0.9713,1.6254-1.9562,2.4596-2.9156c-9.5174-3.9457-19.6426-7.2117-29.8753-9.9055
				c-0.8662,0.8346-1.7214,1.6803-2.575,2.5276c-0.0036-0.001-0.0071-0.002-0.0107-0.003
				c-0.1353,0.1343-0.2664,0.2727-0.4012,0.4074c-0.2508,0.2502-0.4991,0.5029-0.7489,0.7542
				c-0.0033-0.0009-0.0067-0.0019-0.01-0.0028c-0.6016,0.6055-1.1938,1.2202-1.7889,1.8321
				c0.0008,0.0002,0.0017,0.0005,0.0025,0.0007c-0.1205,0.1241-0.2439,0.2455-0.3642,0.3698
				c0.0006,0.0002,0.0013,0.0003,0.0019,0.0005c-0.1655,0.1709-0.3348,0.3381-0.4999,0.5095
				C94.1997,94.9638,104.7472,98.162,114.6147,102.0729z"/>
			<path class="st2" d="M133.5972,68.118c5.7201,2.4924,11.1857,5.2213,16.3169,8.1956c1.2681,0.7556,2.5171,1.5248,3.7397,2.3125
				c17.2406,10.691,33.2152,23.4251,47.5252,37.7993v-3.1249c-4.0066-3.9558-8.1309-7.7931-12.3794-11.4885
				c0.4995-0.5233,0.9944-1.0508,1.4991-1.5691c-10.3784-8.9377-21.4281-17.0924-33.0611-24.306
				c-3.5425-2.2824-7.2882-4.4226-11.1803-6.4448c1.0659-0.9344,2.1387-1.8612,3.2166-2.7823
				c-7.2053-3.6177-14.8651-6.8268-22.79-9.6611c-1.211,0.7804-2.4108,1.5764-3.606,2.3789
				c-0.0018-0.0006-0.0034-0.0013-0.0052-0.0019c-0.066,0.0442-0.1304,0.0906-0.1963,0.1349
				c-0.4695,0.3159-0.9338,0.6387-1.4009,0.9579c-0.0035-0.0013-0.0069-0.0026-0.0105-0.0039
				c-0.7584,0.5173-1.5107,1.0428-2.2628,1.5686c0.0006,0.0002,0.0012,0.0005,0.0018,0.0007
				c-0.1024,0.0716-0.2068,0.1406-0.3091,0.2123c0.0003,0.0001,0.0007,0.0003,0.0011,0.0004
				c-0.0958,0.0672-0.1935,0.132-0.2892,0.1993C123.6014,64.2065,128.6694,66.0917,133.5972,68.118z"/>
			<path class="st2" d="M123.7252,84.9274c5.457,2.3341,10.6808,4.8905,15.584,7.6843c1.439,0.8445,2.8534,1.7069,4.2313,2.5946
				c21.644,13.4212,41.1448,30.2877,57.6386,49.6671v-3.4418c-7.7582-8.9151-16.1454-17.2895-25.0871-25.0241
				c0.4505-0.566,0.8961-1.136,1.3513-1.698c-9.5337-8.147-19.6676-15.5881-30.3186-22.1928
				c-4.974-3.2046-10.358-6.1229-16.0279-8.7894c0.9376-0.9561,1.8605-1.9268,2.8109-2.8702
				c-8.4792-3.8392-17.5106-7.1261-26.7536-9.9396c-1.0277,0.8172-2.0452,1.6465-3.0598,2.4793
				c-0.0045-0.0014-0.0089-0.0029-0.0134-0.0042c-0.1608,0.1323-0.3174,0.2694-0.4778,0.4022
				c-0.294,0.2427-0.583,0.4912-0.8758,0.7353c-0.0019-0.0006-0.0037-0.0012-0.0056-0.0018
				c-0.6798,0.5675-1.355,1.1403-2.0284,1.7151c0.0003,0.0001,0.0007,0.0002,0.0011,0.0003
				c-0.1166,0.0997-0.2356,0.1966-0.3521,0.2964c0.0003,0.0001,0.0006,0.0002,0.0009,0.0003
				c-0.1427,0.1223-0.2887,0.2409-0.4312,0.3635C108.078,79.2056,116.0946,81.8672,123.7252,84.9274z"/>
			<path class="st2" d="M141.5997,50.5046c5.9727,2.5726,11.7031,5.3752,17.0871,8.4359c1.7297,1.0092,3.4283,2.0411,5.0803,3.1054
				c16.8204,10.4305,32.4876,22.7109,46.7097,36.4723h3.2261c-3.5311-3.4722-7.1495-6.8561-10.8579-10.1387
				c0.5493-0.48,1.0943-0.9648,1.6491-1.4387c-11.6049-10.1908-24.0256-19.4497-37.1432-27.5835
				c-1.6504-1.0633-3.3452-2.0955-5.0717-3.1043c1.2004-0.9052,2.4071-1.8023,3.6213-2.6901
				c-5.6706-3.2101-11.6738-6.1494-17.9207-8.8312c-1.4239,0.7207-2.8375,1.4588-4.244,2.2082
				c-0.0001-0.0001-0.0003-0.0001-0.0004-0.0002c-0.0049,0.0026-0.0097,0.0054-0.0145,0.0079
				c-0.6224,0.3317-1.2383,0.6742-1.8575,1.0111c-0.0107-0.0046-0.0212-0.0096-0.0319-0.0142
				c-0.8286,0.4501-1.6448,0.9197-2.4674,1.3793c0.001,0.0005,0.002,0.0009,0.003,0.0013
				c-0.0776,0.0434-0.1566,0.0844-0.2342,0.1279c0.0002,0.0001,0.0004,0.0002,0.0006,0.0002
				c-0.0159,0.0089-0.0321,0.0174-0.048,0.0263C139.9325,49.8122,140.7613,50.1633,141.5997,50.5046z"/>
			<path class="st2" d="M168.4181,42.1301c1.8608,1.0832,3.6866,2.1921,5.462,3.336
				c23.5013,14.5734,44.9037,32.5294,63.4179,53.0521h1.0713h1.9492c-6.9665-7.8269-14.347-15.2895-22.0987-22.3444
				c0.6068-0.4389,1.2097-0.883,1.8222-1.3146c-12.5683-11.3683-26.1061-21.6585-40.4213-30.7109
				c1.3398-0.8621,2.6855-1.7157,4.041-2.5553c-0.1779-0.1108-0.3538-0.2249-0.5318-0.3353
				c-3.6759-2.3682-7.5871-4.6451-11.7175-6.8352c-2.3955,0.9038-4.7673,1.8545-7.1262,2.8304
				c-0.0043-0.0023-0.0085-0.0047-0.0128-0.007c-0.6299,0.2613-1.2571,0.5273-1.8846,0.793
				c-0.1885,0.08-0.3797,0.1547-0.5679,0.2353c0.0014,0.0006,0.0027,0.0014,0.0041,0.002
				c-0.0757,0.0324-0.1521,0.0634-0.2277,0.0958c0.0007,0.0004,0.0015,0.0008,0.0023,0.0012
				c-0.0335,0.0144-0.0676,0.0276-0.1012,0.042C163.8568,39.6129,166.165,40.8511,168.4181,42.1301z"/>
			<path class="st2" d="M102.44,118.0621c0.0195-0.0276,0.0402-0.0545,0.0597-0.0821c6.2077,2.4734,12.1133,5.2608,17.5627,8.3845
				c1.1028,0.654,2.1909,1.3184,3.2518,2.0019c28.1036,17.4269,52.0779,41.5165,69.3157,69.6384l38.1273,66.135h2.5958
				l-38.7901-67.2845c-10.8545-17.709-24.3436-33.8257-39.8268-47.7177c0.3471-0.6588,0.6884-1.321,1.0423-1.9754
				c-9.0154-7.9455-18.6751-15.1569-28.8801-21.4847c-6.6312-4.2723-14.0352-7.968-21.8763-11.1683
				c0.7056-0.9687,1.3951-1.9501,2.1138-2.9086c-10.3486-3.9881-21.3433-7.1674-32.28-9.6892
				c-1.0582,1.2248-2.0982,2.4654-3.1289,3.714c-0.0032-0.0007-0.0063-0.0016-0.0094-0.0023
				c-0.5277,0.6363-1.0452,1.2813-1.5664,1.9232c0.0023,0.0006,0.0045,0.0011,0.0068,0.0017
				c-0.117,0.1441-0.2375,0.2852-0.3541,0.4296c0.0017,0.0004,0.0035,0.0009,0.0052,0.0013
				c-0.1735,0.215-0.3507,0.427-0.5236,0.6425C80.4995,111.0426,91.8286,114.1348,102.44,118.0621z"/>
			<path class="st2" d="M91.6027,134.6209c0.0275-0.0454,0.0567-0.0895,0.0842-0.1349c6.6685,2.535,13.0019,5.443,18.7731,8.7647
				c0.9287,0.5546,1.8451,1.118,2.7413,1.6954c25.9719,16.1052,48.1271,38.3675,64.0561,64.3535l31.612,54.84h1.289h1.3066
				l-32.2745-55.9891c-9.1405-14.9123-20.3026-28.6019-33.0352-40.632c0.2961-0.7276,0.586-1.4585,0.8913-2.1814
				c-9.3342-8.6277-19.4683-16.3878-30.2614-23.0806c-6.8666-4.4239-14.6288-8.1792-22.8505-11.3723
				c0.6128-0.9783,1.2088-1.968,1.8335-2.9381c-10.991-3.9994-22.657-7.0591-34.0471-9.3857
				c-0.5758,0.7994-1.1407,1.6071-1.7069,2.4138c-0.0025-0.0005-0.0049-0.0011-0.0074-0.0017
				c-0.1188,0.1693-0.234,0.3412-0.3526,0.5107c-0.2347,0.3362-0.4687,0.6729-0.7018,1.0103
				c-0.4094,0.5886-0.8233,1.1737-1.2253,1.7676c0.0026,0.0006,0.0051,0.0011,0.0077,0.0017
				c-0.1102,0.1622-0.2246,0.3213-0.3342,0.484c0.005,0.001,0.01,0.0022,0.0149,0.0032c-0.1681,0.2495-0.3408,0.4955-0.5079,0.7457
				C68.4863,127.7227,80.4204,130.6907,91.6027,134.6209z"/>
			<path class="st2" d="M353.1957,206.243c-0.2566-0.006-0.507-0.0102-0.7372-0.0109c-0.6333,0.0116-1.2426,0.0343-1.8287,0.0634
				l25.8986,44.8965c0.644-0.3978,1.269-0.8144,1.8769-1.2469L353.1957,206.243z"/>
			<path class="st2" d="M477.8427,346.4063l-81.4689-141.2141l-1.4655,1.9599l81.8582,141.8886
				C477.1277,348.1638,477.4916,347.2883,477.8427,346.4063z"/>
			<path class="st2" d="M432.2267,419.1752l-64.5126-111.8518c-0.8012,0.1168-1.6078,0.2161-2.4143,0.3153l65.3239,113.2584
				C431.1583,420.3233,431.6978,419.7542,432.2267,419.1752z"/>
			<path class="st2" d="M241.4469,19.5489c-0.0052-0.0043-0.0104-0.0088-0.0157-0.013c-0.9887,0.0585-1.977,0.1188-2.9629,0.1877
				c-0.0005,0.0001-0.001,0.0001-0.0015,0.0001c-0.1183,0.0083-0.2373,0.0139-0.3555,0.0225
				c27.798,22.3514,52.1033,49.0372,71.6777,78.7719h2.7096c-11.7529-18.0196-25.2342-34.9286-40.1579-50.4622
				c0.7935-0.2758,1.584-0.5581,2.3821-0.8237c-9.4906-9.8661-19.5522-19.1862-30.1377-27.8674
				C243.5356,19.4131,242.4929,19.4873,241.4469,19.5489z"/>
			<path class="st2" d="M485.9243,322.4594l-77.1923-133.7936l-1.4656,1.9599l77.7927,134.8345
				C485.3521,324.4619,485.644,323.4632,485.9243,322.4594z"/>
			<path class="st2" d="M445.1997,403.6993l-58.2825-101.0431c-0.7217,0.2499-1.4421,0.5023-2.1713,0.7365l58.9718,102.2379
				C444.219,404.9929,444.7047,404.3423,445.1997,403.6993z"/>
			<path class="st2" d="M457.2323,386.5961l-52.9962-91.8719c-0.6469,0.3777-1.301,0.7441-1.9577,1.1068l53.5746,92.8744
				C456.3129,388.0025,456.7795,387.3043,457.2323,386.5961z"/>
			<path class="st2" d="M468.174,367.6028l-88.0588-152.6455l-1.3981-1.0189c-0.9108-0.6637-1.8698-1.2831-2.8628-1.8669
				l91.0797,157.8817C467.3492,369.171,467.7671,368.3903,468.174,367.6028z"/>
			<path class="st2" d="M106.0949,444.3922l-71.7781-124.571l-0.0535-0.0906c-3.1348-5.1135-7.4542-9.5052-12.4571-12.7266
				c0.5287,2.5403,1.1133,5.0597,1.7237,7.5689c-0.0042-0.0046-0.0082-0.0094-0.0124-0.014
				c0.1396,0.5757,0.2965,1.1445,0.4402,1.7185c0.2601,1.0363,0.5073,2.0777,0.7804,3.1089
				c0.0083,0.0096,0.0154,0.0201,0.0237,0.0296c0.0886,0.3344,0.1678,0.6724,0.2578,1.0062
				c-0.0007-0.001-0.0014-0.0021-0.0021-0.0031c0.0051,0.0189,0.0106,0.0376,0.0157,0.0565
				c0.0176,0.0652,0.0366,0.1297,0.0542,0.1948c0.7821,2.8917,1.6018,5.7678,2.4894,8.6145l51.7256,89.9282
				c0.6815,0.7458,1.3762,1.4791,2.0676,2.2157l0.0082,0.0142c0.0452,0.0482,0.0928,0.0942,0.138,0.1424
				c1.4307,1.5216,2.874,3.0312,4.3426,4.516l-0.0474-0.0823c0.7306,0.7391,1.4662,1.4728,2.2063,2.2024l0.0415,0.0721
				c1.4626,1.4409,2.9455,2.8611,4.4447,4.2639c0.018,0.0169,0.0353,0.0347,0.0533,0.0515l-0.0034-0.0059
				c4.2784,4.001,8.7019,7.8482,13.2654,11.53L106.0949,444.3922z"/>
			<path class="st2" d="M370.9325,48.6546c-1.404-0.7739-2.8184-1.5307-4.2394-2.277c3.5956,5.2803,7.0711,10.6406,10.4081,16.0847
				L494.566,266.0379c0.0472-1.4386,0.0789-2.8809,0.1006-4.3258L379.0342,61.3127
				C376.4164,57.0419,373.7089,52.8257,370.9325,48.6546z"/>
			<path class="st2" d="M408.3391,74.1622c-1.609-1.3366-3.2324-2.6565-4.8767-3.9512l88.8489,153.9747
				c-0.2924-2.0603-0.6104-4.1122-0.955-6.1553L408.3391,74.1622z"/>
			<path class="st2" d="M338.0945,146.617l5.0466,8.748c0.8109-0.0557,1.6508-0.1046,2.5113-0.1472l-6.657-11.5397v2.9388H338.0945z
				"/>
			<path class="st2" d="M58.8833,298.0229c-2.0843-3.4009-4.4714-6.6171-7.1035-9.6188c-0.0815-2.4393-0.1427-4.8838-0.1646-7.3378
				c-3.1503-2.8275-6.5421-5.3778-10.1263-7.6003c-6.8918-4.4402-16.1636-7.0333-24.6038-8.5515
				c0.0388,1.3797,0.094,2.7552,0.1589,4.1282c-0.0007-0.0002-0.0013-0.0003-0.002-0.0005
				c0.0359,0.7945,0.0738,1.5883,0.1174,2.3808c0.0027,0.0007,0.0054,0.0016,0.0082,0.0023c0.009,0.165,0.014,0.331,0.0234,0.4959
				c0.0024,0.0006,0.0049,0.0013,0.0073,0.0018c0.0141,0.2426,0.0244,0.4861,0.039,0.7286
				c3.7144,0.7231,7.5167,1.6734,11.0905,2.9083c1.1117,0.4873,2.1835,1.0098,3.2088,1.5677
				c0.2526,0.1531,0.5139,0.2999,0.7592,0.458c8.9166,5.5292,16.5226,13.1718,21.9804,22.0756l100.8343,175.1871
				c0.3573,0.1661,0.7178,0.3262,1.0757,0.4912l0.0087,0.0151c0.7703,0.3535,1.5442,0.7003,2.318,1.0474
				c0.0394,0.0175,0.0782,0.0361,0.1176,0.0536l-0.0005-0.0007c1.311,0.5872,2.6259,1.1674,3.9508,1.7289L58.8833,298.0229z"/>
			<path class="st2" d="M56.8209,332.4501c-1.0507-5.3525-1.9497-10.759-2.6883-16.2171l-4.4368-7.7109l-0.0535-0.0897
				c-4.5604-7.4412-10.8973-13.8088-18.2712-18.3806c-3.755-2.4191-8.4072-4.1308-13.1036-5.3473
				c0.1237,1.1151,0.2595,2.2265,0.398,3.3371c-0.0058-0.0022-0.0115-0.0046-0.0173-0.0068
				c0.0779,0.6228,0.1712,1.2408,0.2558,1.8615c-0.0026-0.0011-0.005-0.0025-0.0077-0.0037
				c0.118,0.8864,0.2436,1.7703,0.3713,2.6536c0.0002,0.0001,0.0003,0.0002,0.0005,0.0003
				c0.0088,0.0606,0.0162,0.1217,0.0251,0.1823c0.0001,0.0001,0.0002,0.0001,0.0002,0.0001
				c0.0034,0.0231,0.0061,0.0464,0.0095,0.0696c0.2061,0.0652,0.404,0.1411,0.6084,0.2087c0.6323,0.286,1.2484,0.5858,1.843,0.9023
				c0.1411,0.0865,0.2911,0.1667,0.4289,0.2555c6.7845,4.2075,12.5718,10.0232,16.7207,16.7917l83.7941,145.6282
				c0.4229,0.284,0.8526,0.5585,1.2769,0.8405v0.0001c0.001,0.0007,0.0021,0.0014,0.0031,0.0021
				c0.9626,0.6396,1.9232,1.282,2.8966,1.9066l-0.0196-0.0341c1.5338,0.9885,3.0752,1.9662,4.6347,2.9174L56.8209,332.4501z"/>
			<path class="st2" d="M21.5451,210.4445c-0.0041-0.0006-0.0083-0.0014-0.0124-0.0021c-0.0584,0.2889-0.1097,0.5805-0.1667,0.8699
				c-0.2851,1.4178-0.5612,2.8388-0.8175,4.2669c10.6674,1.4465,22.9793,3.9044,33.8179,7.992
				c2.321,1.0037,4.5404,2.1004,6.646,3.2814c0.5472,0.3268,1.095,0.653,1.623,0.9932
				c15.3117,9.4946,28.374,22.6197,37.7584,37.9291L232.969,495.9418c0.9103,0.0862,1.8221,0.167,2.7354,0.2429l-0.0084-0.0146
				c1.0329,0.0872,2.0643,0.18,3.1013,0.2527l-133.796-232.2861c-9.6585-15.7579-23.0796-29.2431-38.7821-38.9803
				c-2.6538-1.7097-5.5394-3.2435-8.568-4.6361c0.2492-1.1815,0.5044-2.3608,0.7696-3.5364
				c-11.7036-4.619-24.9646-7.323-36.3901-8.8944C21.8642,208.8728,21.7058,209.659,21.5451,210.4445z"/>
			<path class="st2" d="M333.9862,210.8912c-0.6411,0.3961-1.2654,0.8155-1.8707,1.2576l25.9579,45.0027
				c0.8156-0.0779,1.6269-0.1701,2.4297-0.2885L333.9862,210.8912z"/>
			<path class="st2" d="M418.3759,433.1307l-71.8865-124.6461c-0.9195-0.0396-1.8116-0.0876-2.6783-0.1427l72.8756,126.3613
				C417.2553,434.1848,417.8124,433.6544,418.3759,433.1307z"/>
			<path class="st2" d="M238.7475,164.1193l4.929,8.5473v-4.5017l-2.9959-5.1952c-3.424-5.5863-7.0663-11.0399-10.9063-16.3528
				h-2.7927C231.1362,152.2943,235.0742,158.1266,238.7475,164.1193z"/>
			<path class="st2" d="M305.5604,166.1109c0.649-0.3765,1.3103-0.729,1.9694-1.0867l-3.0213-5.2378h-2.5961L305.5604,166.1109z"/>
			<path class="st2" d="M322.073,228.1909c-0.1787,1.1523-0.2904,2.3611-0.3007,3.6419c0.001,0.1227,0.0105,0.2392,0.0132,0.3607
				l11.669,20.2317c1.2091,0.7837,2.4799,1.4773,3.7953,2.0792L322.073,228.1909z"/>
			<path class="st2" d="M265.5759,248.6006l8.9602,15.5391h0.0702c-1.8396-3.902-3.3346-7.9662-4.4796-12.1491l-1.9548-3.39
				H265.5759z"/>
			<path class="st2" d="M323.114,158.5952c0.7489-0.2164,1.5019-0.4009,2.2541-0.5931l-6.5675-11.3851h-2.5962L323.114,158.5952z"/>
			<path class="st2" d="M403.7258,445.7025l-64.0164-111.0092c-0.2725,0.9916-0.5755,1.9683-0.9053,2.932l63.1284,109.4694
				C402.5308,446.6312,403.132,446.1714,403.7258,445.7025z"/>
			<path class="st2" d="M370.7366,467.5805c1.2049-0.6627,2.4073-1.3295,3.5994-2.0122l-5.3398-9.2614
				c-0.9189,0.1204-1.8436,0.2223-2.7666,0.3292l-24.3209-42.1819h-2.596l30.8243,53.4616
				C370.3381,467.8058,370.5367,467.6921,370.7366,467.5805z"/>
			<path class="st2" d="M287.7962,320.6014l-4.4593-7.7343c-0.8605-0.251-1.8266-0.4283-2.9006-0.5282l6.3549,11.0218
				C287.2515,322.761,287.6327,321.9092,287.7962,320.6014z"/>
			<polygon class="st2" points="266.5969,326.3068 269.1929,326.3068 261.08,312.2343 258.4841,312.2343 			"/>
			<path class="st2" d="M223.375,175.4143l20.3015,35.2076v-4.502l-18.3685-31.8552c-5.919-9.6567-12.526-18.8953-19.7319-27.6478
				h-2.9015C210.2649,155.7056,217.1963,165.3342,223.375,175.4143z"/>
		</g>
		<g class="st1">
			<linearGradient id="SVGID_4_" gradientUnits="userSpaceOnUse" x1="135.3496" y1="200.4018" x2="342.2586" y2="449.0557">
				<stop  offset="0.0017" style="stop-color:#427BFF"/>
				<stop  offset="0.9959" style="stop-color:#A6A6B1"/>
			</linearGradient>
			<path class="st3" d="M349.0693,455.9958c-0.9717,0.0305-1.9482,0.0411-2.9234,0.0573l-25.1353-43.5992h-2.596l35.6848,61.8984
				c0.2102-0.0939,0.4191-0.1901,0.6289-0.2847l0.0044,0.0077c0.2863-0.1289,0.5685-0.2654,0.8538-0.3962
				c0.1903-0.0867,0.3815-0.1717,0.5717-0.2588l-0.003-0.0051c0.7779-0.3601,1.5574-0.7173,2.3324-1.0825L349.0693,455.9958z"/>
			<linearGradient id="SVGID_5_" gradientUnits="userSpaceOnUse" x1="319.2859" y1="47.3453" x2="526.1949" y2="295.9992">
				<stop  offset="0.0017" style="stop-color:#427BFF"/>
				<stop  offset="0.9959" style="stop-color:#A6A6B1"/>
			</linearGradient>
			<path class="st4" d="M362.7283,71.7571L492.314,296.35c0.1977-1.1639,0.3986-2.3268,0.5793-3.4963L364.6613,70.6075
				c-7.6555-12.49-16.0414-24.5366-25.066-36.0924c0.9133-0.0134,1.8248-0.0347,2.7414-0.0347c0.1021,0,0.2032,0.0037,0.3052,0.0039
				c-0.5403-0.6945-1.0746-1.3936-1.6196-2.0845c-2.4641-0.9289-4.9411-1.8315-7.4432-2.6806
				c0.0058,0.007,0.0113,0.0142,0.0171,0.0213c-0.3096-0.1059-0.6163-0.2179-0.9268-0.3218
				C343.6227,42.8511,353.6823,56.9991,362.7283,71.7571z"/>
			<linearGradient id="SVGID_6_" gradientUnits="userSpaceOnUse" x1="167.1483" y1="173.9415" x2="374.0574" y2="422.5954">
				<stop  offset="0.0017" style="stop-color:#427BFF"/>
				<stop  offset="0.9959" style="stop-color:#A6A6B1"/>
			</linearGradient>
			<path class="st5" d="M389.8391,450.7388c-0.8716,0.2007-1.7498,0.3839-2.6263,0.5717l-57.126-99.0696
				c-0.5172,0.5846-1.0504,1.1607-1.5993,1.7286l58.9227,102.1855c0.6284-0.4112,1.2575-0.8217,1.8819-1.2386l-0.0059-0.0103
				c0.7123-0.4739,1.4269-0.9445,2.133-1.4271L389.8391,450.7388z"/>
			<linearGradient id="SVGID_7_" gradientUnits="userSpaceOnUse" x1="273.8871" y1="85.1224" x2="480.7961" y2="333.7763">
				<stop  offset="0.0017" style="stop-color:#427BFF"/>
				<stop  offset="0.9959" style="stop-color:#A6A6B1"/>
			</linearGradient>
			<path class="st6" d="M287.6157,96.518h0.8728h1.5779h0.3051c-10.896-15.2062-23.1046-29.4866-36.4299-42.6433
				c0.7295-0.3391,1.4557-0.6842,2.1905-1.0139c-11.537-11.3581-23.9027-21.8747-36.972-31.4232
				c1.6325-0.7157,3.2707-1.421,4.9188-2.1076c-0.0003-0.0003-0.0007-0.0005-0.0011-0.0008
				c-2.1607,0.2954-4.3095,0.6273-6.4516,0.9788c-0.0021-0.0015-0.0042-0.0031-0.0063-0.0047
				c-0.3857,0.0636-0.7672,0.1388-1.1523,0.2041c-0.551,0.0932-1.1018,0.1872-1.6516,0.2843
				c-0.0089-0.0064-0.0175-0.0131-0.0264-0.0195c-0.4857,0.086-0.968,0.1817-1.4515,0.2739
				c-0.0794,0.0146-0.1597,0.0265-0.2391,0.0411c0.0015,0.001,0.0029,0.0021,0.0044,0.0031
				c-0.3738,0.0716-0.7486,0.1401-1.1225,0.2118c-0.0166,0.0031-0.0335,0.0057-0.0501,0.0089
				c0.0002,0.0002,0.0004,0.0003,0.0006,0.0005c-0.067,0.0128-0.1342,0.0252-0.2013,0.038
				C240.911,42.0483,266.6747,67.5754,287.6157,96.518z"/>
			<linearGradient id="SVGID_8_" gradientUnits="userSpaceOnUse" x1="306.5829" y1="57.9157" x2="513.4919" y2="306.5695">
				<stop  offset="0.0017" style="stop-color:#427BFF"/>
				<stop  offset="0.9959" style="stop-color:#A6A6B1"/>
			</linearGradient>
			<path class="st7" d="M331.9832,94.3475l1.2522,2.1705h2.5963l-1.9155-3.3201c-11.5768-18.8875-24.9482-36.6887-39.8269-53.1411
				c0.8657-0.2029,1.7286-0.4129,2.5985-0.605c-6.7809-7.4995-13.8748-14.7186-21.2556-21.6316
				c-1.158-0.0895-2.324-0.1495-3.4864-0.223c-0.0021-0.0019-0.0041-0.0039-0.0062-0.0059
				c-0.3485-0.0219-0.6982-0.0396-1.0467-0.0615c-0.6645-0.039-1.3245-0.094-1.9904-0.1273c0.004,0.0037,0.0079,0.0074,0.012,0.0111
				c-0.1718-0.009-0.3426-0.022-0.5146-0.0302C293.045,39.9499,314.5584,65.9196,331.9832,94.3475z"/>
			<linearGradient id="SVGID_9_" gradientUnits="userSpaceOnUse" x1="315.7167" y1="50.3153" x2="522.6257" y2="298.9692">
				<stop  offset="0.0017" style="stop-color:#427BFF"/>
				<stop  offset="0.9959" style="stop-color:#A6A6B1"/>
			</linearGradient>
			<path class="st8" d="M307.2395,22.4595c-1.2952-0.2786-2.5946-0.5455-3.8969-0.8045c-0.0011-0.0012-0.0022-0.0025-0.0034-0.0037
				c-1.0205-0.2017-2.0432-0.397-3.0677-0.5877c-0.0003-0.0001-0.0006-0.0001-0.0009-0.0002
				c-0.2374-0.0442-0.4731-0.0932-0.711-0.1362c18.054,18.9855,34.1303,39.83,47.7965,62.1253l44.7041,77.4836
				c1.1496,0.4554,2.2903,0.9275,3.4178,1.4237l-46.1888-80.0568c-9.8461-16.0635-20.9348-31.3752-33.1018-45.7885
				c0.9336-0.115,1.8647-0.2375,2.8019-0.3407C315.175,31.2476,311.2612,26.8043,307.2395,22.4595z"/>
			<linearGradient id="SVGID_10_" gradientUnits="userSpaceOnUse" x1="121.8733" y1="211.6156" x2="328.7824" y2="460.2695">
				<stop  offset="0.0017" style="stop-color:#427BFF"/>
				<stop  offset="0.9959" style="stop-color:#A6A6B1"/>
			</linearGradient>
			<path class="st9" d="M326.9107,455.5493c-1.0396-0.0752-2.0728-0.1724-3.1079-0.2634l-24.6902-42.832h-2.5959l39.773,68.9976
				c0.7191-0.2538,1.442-0.4996,2.1579-0.7601l-0.01-0.0173c0.8144-0.2963,1.6305-0.589,2.4408-0.8938L326.9107,455.5493z"/>
			<linearGradient id="SVGID_11_" gradientUnits="userSpaceOnUse" x1="257.1439" y1="99.0547" x2="464.0529" y2="347.7086">
				<stop  offset="0.0017" style="stop-color:#427BFF"/>
				<stop  offset="0.9959" style="stop-color:#A6A6B1"/>
			</linearGradient>
			<path class="st10" d="M197.2511,24.5651c-1.8954,0.4857-3.7779,1.0026-5.6535,1.5362c-0.0045-0.0029-0.0089-0.0059-0.0134-0.0088
				c-0.8278,0.2341-1.647,0.4881-2.4707,0.7318c-0.0013-0.0008-0.0026-0.0017-0.0039-0.0025
				c-0.6433,0.1895-1.2854,0.3817-1.9277,0.5734c-0.0002,0.0001-0.0003,0.0001-0.0005,0.0002
				c-0.2848,0.0851-0.571,0.1671-0.8549,0.2543c-0.0011,0.0003-0.0022,0.0006-0.0034,0.001
				c-0.0262,0.0081-0.0527,0.0154-0.0788,0.0235c29.3729,18.4124,55.6037,41.837,77.2845,68.8438h2.8701
				c-9.3466-11.778-19.5421-22.8924-30.4829-33.221c0.6659-0.3921,1.3282-0.7897,1.9996-1.1733
				c-12.0468-11.3216-24.9888-21.6875-38.6606-30.9691c1.477-0.7993,2.9598-1.5894,4.4547-2.3596
				C201.573,27.36,199.4224,25.9464,197.2511,24.5651z"/>
			<linearGradient id="SVGID_12_" gradientUnits="userSpaceOnUse" x1="69.8976" y1="254.8655" x2="276.8067" y2="503.5193">
				<stop  offset="0.0017" style="stop-color:#427BFF"/>
				<stop  offset="0.9959" style="stop-color:#A6A6B1"/>
			</linearGradient>
			<path class="st11" d="M256.4981,495.0253c0.0832,0.0001,0.1657,0.0031,0.2489,0.0031c0.3129,0,0.6241-0.0071,0.9358-0.0118
				c1.4464-0.0061,2.8901-0.0237,4.3304-0.0548l-47.0608-81.6877c-0.3554-0.2699-0.7044-0.5475-1.0574-0.8202h-2.7366h-2.2301
				L256.4981,495.0253z"/>
			<linearGradient id="SVGID_13_" gradientUnits="userSpaceOnUse" x1="176.8329" y1="165.8828" x2="383.742" y2="414.5367">
				<stop  offset="0.0017" style="stop-color:#427BFF"/>
				<stop  offset="0.9959" style="stop-color:#A6A6B1"/>
			</linearGradient>
			<polygon class="st12" points="247.2828,246.6004 244.6869,246.6004 253.6463,262.1395 256.2422,262.1395 			"/>
			<linearGradient id="SVGID_14_" gradientUnits="userSpaceOnUse" x1="82.0973" y1="244.7139" x2="289.0063" y2="493.3678">
				<stop  offset="0.0017" style="stop-color:#427BFF"/>
				<stop  offset="0.9959" style="stop-color:#A6A6B1"/>
			</linearGradient>
			<path class="st13" d="M248.9992,434.3609c-1.4028-0.6939-2.7952-1.4052-4.1817-2.1265L233.42,412.4539h-2.5952l47.0384,81.6353
				c0.8233-0.0721,1.6481-0.1388,2.469-0.2192l-0.0103-0.0179c0.9326-0.0907,1.8664-0.1769,2.7957-0.2789L248.9992,434.3609z"/>
			<linearGradient id="SVGID_15_" gradientUnits="userSpaceOnUse" x1="111.4178" y1="220.3158" x2="318.3268" y2="468.9697">
				<stop  offset="0.0017" style="stop-color:#427BFF"/>
				<stop  offset="0.9959" style="stop-color:#A6A6B1"/>
			</linearGradient>
			<path class="st14" d="M303.241,452.4803c-1.1199-0.2101-2.2306-0.4452-3.3441-0.6731l-44.9364-77.9644v4.5036l62.7257,108.829
				c0.2293-0.0603,0.4571-0.124,0.6858-0.1856c0.0014-0.0004,0.0029-0.0008,0.0044-0.0012
				c0.5187-0.1397,1.0376-0.2793,1.5556-0.4209l-0.0016-0.0028c0.8527-0.2294,1.7072-0.4545,2.5547-0.6966L303.241,452.4803z"/>
			<linearGradient id="SVGID_16_" gradientUnits="userSpaceOnUse" x1="95.2853" y1="233.7399" x2="302.1944" y2="482.3938">
				<stop  offset="0.0017" style="stop-color:#427BFF"/>
				<stop  offset="0.9959" style="stop-color:#A6A6B1"/>
			</linearGradient>
			<path class="st15" d="M277.587,445.9671c-1.2328-0.3975-2.4514-0.8258-3.6743-1.2451l-18.9523-32.8868v0.6186h-2.2388
				l45.5135,78.9768c0.2398-0.042,0.4783-0.0877,0.7177-0.1311l0.0064,0.0111c0.487-0.0868,0.9696-0.1862,1.4549-0.278
				c0.0563-0.0105,0.1128-0.0204,0.1692-0.0309l-0.0008-0.0013c0.8881-0.1688,1.7775-0.3341,2.6635-0.5089L277.587,445.9671z"/>
			<linearGradient id="SVGID_17_" gradientUnits="userSpaceOnUse" x1="55.3552" y1="266.9664" x2="262.2643" y2="515.6203">
				<stop  offset="0.0017" style="stop-color:#427BFF"/>
				<stop  offset="0.9959" style="stop-color:#A6A6B1"/>
			</linearGradient>
			<path class="st16" d="M46.1789,238.6886c2.1146,0.8983,4.1411,1.8785,6.0523,2.9456c0.4346,0.261,0.8706,0.5209,1.291,0.7918
				c13.18,8.1725,24.4237,19.4698,32.4992,32.6443l124.0342,215.3846c0.2967,0.0587,0.5949,0.1132,0.892,0.1709v0.0001
				c0.0012,0.0002,0.0025,0.0005,0.0037,0.0007c0.6734,0.1306,1.3464,0.2623,2.0218,0.3873l-0.0116-0.02
				c1.1,0.2043,2.1979,0.415,3.3035,0.6036L90.6289,273.4319c-8.3496-13.6221-19.9521-25.2804-33.5225-33.6954
				c-0.6335-0.4082-1.2828-0.8043-1.9442-1.1908c0.1836-1.3642,0.3761-2.7256,0.5817-4.0828
				c-11.0768-5.2179-24.5393-8.094-35.9253-9.6754c-0.1041,0.7958-0.1976,1.5949-0.294,2.3931
				c-0.0003,0-0.0007-0.0001-0.0011-0.0002c-0.0053,0.0439-0.0098,0.088-0.0151,0.1319c-0.1055,0.8784-0.2057,1.7583-0.3017,2.6396
				c-0.0291,0.255-0.0605,0.5093-0.0875,0.7649h0.0001c-0.0221,0.2059-0.0493,0.4102-0.0705,0.6163
				c0.0034,0.0006,0.0069,0.0012,0.0102,0.0018c-0.0344,0.3346-0.074,0.6676-0.107,1.0026
				C27.5908,233.5442,37.4045,235.5069,46.1789,238.6886z"/>
			<linearGradient id="SVGID_18_" gradientUnits="userSpaceOnUse" x1="101.8208" y1="228.3017" x2="308.7298" y2="476.9555">
				<stop  offset="0.0017" style="stop-color:#427BFF"/>
				<stop  offset="0.9959" style="stop-color:#A6A6B1"/>
			</linearGradient>
			<path class="st17" d="M67.9399,185.1505c0.016-0.0459,0.0337-0.0909,0.0497-0.1369c4.8383,1.8379,9.4454,3.9314,13.6616,6.3175
				c0.7474,0.4441,1.491,0.891,2.2106,1.3546c19.5769,12.1398,36.2761,28.9195,48.2776,48.4996l70.0051,121.494v-4.504
				l-68.072-118.1391c-0.7645-1.2474-1.5479-2.4834-2.3493-3.7078c0.0603-1.3802,0.1297-2.7581,0.2139-4.1321
				c-11.7638-16.8762-27.0133-31.3618-44.4916-42.2001c-5.4043-3.4817-11.5428-6.4112-18.0372-8.8901
				c0.3805-1.0416,0.7435-2.0916,1.1356-3.1277c-11.9738-4.1336-24.8439-6.8551-36.5321-8.6314
				c-0.305,0.7828-0.5979,1.5714-0.8938,2.3586c-0.0009-0.0002-0.0018-0.0003-0.0027-0.0005
				c-0.0316,0.0837-0.0611,0.1684-0.0926,0.252c-0.1295,0.3457-0.2645,0.6887-0.3923,1.0352
				c-0.0014-0.0002-0.0028-0.0005-0.0042-0.0007c-0.2633,0.71-0.5208,1.4225-0.7775,2.1356
				c0.0028,0.0005,0.0057,0.0011,0.0085,0.0015c-0.0716,0.1988-0.1474,0.3954-0.2185,0.5945
				c0.0024,0.0004,0.0049,0.0009,0.0073,0.0013c-0.1162,0.3262-0.2368,0.6502-0.3519,0.9769
				C43.0018,178.4129,56.0086,181.0658,67.9399,185.1505z"/>
			<linearGradient id="SVGID_19_" gradientUnits="userSpaceOnUse" x1="115.7471" y1="216.7133" x2="322.6561" y2="465.3672">
				<stop  offset="0.0017" style="stop-color:#427BFF"/>
				<stop  offset="0.9959" style="stop-color:#A6A6B1"/>
			</linearGradient>
			<path class="st18" d="M74.874,167.1973c0.0243-0.0569,0.0498-0.113,0.0741-0.1699c5.8971,2.1761,11.5049,4.6884,16.596,7.5854
				c0.8226,0.4891,1.6388,0.9828,2.431,1.4932c21.7081,13.461,40.226,32.0685,53.5368,53.7839l54.6326,94.8006v-4.5034
				l-52.6995-91.4463c-4.3649-7.1214-9.2869-13.9046-14.6818-20.2935c0.1761-0.9987,0.3435-2.0006,0.5336-2.9945
				c-10.9212-12.4537-23.6731-23.3148-37.7379-32.0359c-6.2502-4.0269-13.3876-7.3869-20.9374-10.2058
				c0.4547-1.0164,0.9127-2.0309,1.3781-3.0415c-11.8026-4.0475-24.3855-6.8515-36.115-8.7925
				c-0.3849,0.7885-0.7592,1.5829-1.1357,2.376c-0.0019-0.0004-0.0038-0.0007-0.0057-0.001
				c-0.0877,0.1848-0.1721,0.3715-0.2598,0.5564c-0.2317,0.4912-0.4611,0.9837-0.6895,1.4767
				c-0.2998,0.6401-0.6057,1.2769-0.8972,1.9216c0.0056,0.001,0.0112,0.0021,0.0167,0.003
				c-0.1388,0.3068-0.2826,0.6108-0.4201,0.9182C50.2797,160.4878,63.0277,163.2153,74.874,167.1973z"/>
			<linearGradient id="SVGID_20_" gradientUnits="userSpaceOnUse" x1="88.2682" y1="239.5789" x2="295.1773" y2="488.2328">
				<stop  offset="0.0017" style="stop-color:#427BFF"/>
				<stop  offset="0.9959" style="stop-color:#A6A6B1"/>
			</linearGradient>
			<path class="st19" d="M62.2633,203.5571c0.0041-0.0149,0.0086-0.0296,0.0127-0.0445c3.3478,1.3691,6.5475,2.8848,9.5296,4.5644
				c0.6561,0.3903,1.3108,0.7818,1.9429,1.189c17.4433,10.8163,32.3244,25.7687,43.0185,43.2143l85.3776,148.1982v-4.5048
				l-68.0859-118.183c-0.3486-2.2515-0.6736-4.5108-0.9523-6.7847L121.374,250.841
				c-10.9678-17.8932-26.2071-33.2062-44.0413-44.2646c-4.2132-2.7144-8.9257-5.053-13.9108-7.0778
				c0.3133-1.0917,0.6089-2.1909,0.9355-3.277c-11.9576-4.3024-25.0436-6.9727-36.6062-8.6197
				c-0.2329,0.7801-0.456,1.5643-0.6818,2.3474c-0.0052-0.0009-0.0106-0.0018-0.0158-0.0026
				c-0.1038,0.3612-0.1984,0.7262-0.2995,1.0885c-0.0187,0.0662-0.0388,0.1319-0.0575,0.198
				c-0.0031-0.0005-0.0062-0.0011-0.0093-0.0016c-0.2027,0.7206-0.3912,1.4469-0.5873,2.1702
				c0.0009,0.0002,0.0018,0.0003,0.0027,0.0005c-0.0552,0.2051-0.114,0.4088-0.169,0.614c0.0007,0.0001,0.0014,0.0002,0.0022,0.0003
				c-0.091,0.3385-0.1873,0.6748-0.2766,1.014C37.2382,196.6338,50.4501,199.2674,62.2633,203.5571z"/>
			<linearGradient id="SVGID_21_" gradientUnits="userSpaceOnUse" x1="42.412" y1="277.7367" x2="249.321" y2="526.3906">
				<stop  offset="0.0017" style="stop-color:#427BFF"/>
				<stop  offset="0.9959" style="stop-color:#A6A6B1"/>
			</linearGradient>
			<path class="st20" d="M37.7025,256.0993c1.6541,0.7098,3.2425,1.4798,4.7461,2.3137c0.3231,0.1954,0.6472,0.3902,0.9608,0.5922
				c11.0478,6.8518,20.4729,16.3212,27.2395,27.3604l113.6995,197.485c0.3203,0.1017,0.6431,0.1979,0.9641,0.2979l0.0107,0.0186
				c0.517,0.1617,1.0407,0.3081,1.5592,0.4665c0.2078,0.0633,0.4143,0.1294,0.6222,0.1923l-0.0042-0.0074
				c1.1888,0.3598,2.3744,0.7271,3.5712,1.0685L75.2559,284.7273c-5.7614-9.4002-13.3614-17.6879-22.1997-24.2771
				c0.0924-1.696,0.1953-3.3892,0.322-5.0759c-0.2582-0.164-0.5128-0.334-0.7727-0.4951
				c-9.6342-6.2069-23.1059-9.4619-34.5096-11.1727c-0.0795,1.561-0.1344,3.1283-0.18,4.6979
				c-0.0198,0.4687-0.0414,0.937-0.0535,1.4076c0.0036,0.0007,0.0073,0.0015,0.0109,0.0022
				c-0.0054,0.1942-0.0158,0.387-0.0204,0.5814c0.0039,0.0007,0.008,0.0016,0.012,0.0023
				c-0.0069,0.3086-0.0177,0.6163-0.0237,0.9252C24.2825,252.3227,31.308,253.8311,37.7025,256.0993z"/>
			<linearGradient id="SVGID_22_" gradientUnits="userSpaceOnUse" x1="299.2372" y1="64.0282" x2="506.1462" y2="312.682">
				<stop  offset="0.0017" style="stop-color:#427BFF"/>
				<stop  offset="0.9959" style="stop-color:#A6A6B1"/>
			</linearGradient>
			<path class="st21" d="M366.4228,154.0432c0.9415,0.1169,1.8813,0.2393,2.8155,0.3801l-29.2429-50.6881v1.7968v2.7034
				L366.4228,154.0432z"/>
			<linearGradient id="SVGID_23_" gradientUnits="userSpaceOnUse" x1="129.8393" y1="204.987" x2="336.7484" y2="453.6408">
				<stop  offset="0.0017" style="stop-color:#427BFF"/>
				<stop  offset="0.9959" style="stop-color:#A6A6B1"/>
			</linearGradient>
			<path class="st22" d="M83.0817,149.6806c0.0282-0.055,0.0577-0.1093,0.0859-0.1643c6.5098,2.4086,12.6983,5.1901,18.3091,8.4003
				c0.8843,0.5266,1.7592,1.06,2.6114,1.6091c23.8402,14.7831,44.1767,35.218,58.7965,59.0692l39.26,68.1161v-4.5032l-37.327-64.762
				c-7.0222-11.4569-15.3543-22.118-24.7308-31.7701c0.2472-0.8351,0.4873-1.6732,0.7433-2.5045
				c-10.0004-10.012-21.143-18.8847-33.1578-26.3351c-6.7407-4.3427-14.4228-7.9794-22.5518-11.0386
				c0.532-0.9942,1.0673-1.9864,1.6092-2.9745c-11.4728-4.0114-23.6576-6.9421-35.2998-9.0704
				c-0.4746,0.7949-0.9385,1.5968-1.4043,2.3974c-0.0039-0.0007-0.0078-0.0016-0.0117-0.0024
				c-0.1355,0.233-0.2646,0.47-0.399,0.7037c-0.1147,0.1987-0.2311,0.3964-0.3452,0.5954
				c-0.0039-0.0008-0.0079-0.0016-0.0118-0.0024c-0.3895,0.6799-0.7646,1.3688-1.1476,2.0528
				c0.0013,0.0002,0.0026,0.0006,0.0038,0.0008c-0.0988,0.1769-0.2012,0.3514-0.2997,0.5285
				c0.001,0.0002,0.0019,0.0004,0.0029,0.0006c-0.157,0.2819-0.3188,0.5606-0.4746,0.8433
				C59.0975,142.9053,71.493,145.7433,83.0817,149.6806z"/>
			<linearGradient id="SVGID_24_" gradientUnits="userSpaceOnUse" x1="174.7806" y1="167.5905" x2="381.6897" y2="416.2444">
				<stop  offset="0.0017" style="stop-color:#427BFF"/>
				<stop  offset="0.9959" style="stop-color:#A6A6B1"/>
			</linearGradient>
			<path class="st23" d="M115.6148,100.0727c0.0002-0.0002,0.0003-0.0004,0.0005-0.0006c5.0471,2.1437,9.888,4.486,14.4354,7.0477
				c1.4903,0.8663,2.956,1.7506,4.377,2.6661c30.2352,18.749,56.0282,44.666,74.5749,74.9236l35.674,61.873v-4.5023l-33.741-58.5202
				c-12.2225-19.9408-27.5654-37.9889-45.2119-53.3928c0.4006-0.6094,0.796-1.2225,1.201-1.8287
				c-9.0791-7.8092-18.7426-14.9354-28.9133-21.2421c-5.9883-3.858-12.6075-7.276-19.623-10.3114
				c0.8205-0.9713,1.6254-1.9562,2.4596-2.9156c-9.5174-3.9457-19.6426-7.2117-29.8753-9.9055
				c-0.8662,0.8346-1.7214,1.6803-2.575,2.5277c-0.0036-0.001-0.0071-0.002-0.0107-0.003
				c-0.1353,0.1343-0.2664,0.2727-0.4012,0.4074c-0.2508,0.2502-0.4991,0.5029-0.7489,0.7542
				c-0.0033-0.0009-0.0067-0.0019-0.01-0.0028c-0.6016,0.6055-1.1938,1.2202-1.7889,1.8321
				c0.0008,0.0002,0.0017,0.0005,0.0025,0.0007c-0.1205,0.1241-0.2439,0.2455-0.3642,0.3698
				c0.0006,0.0002,0.0013,0.0003,0.0019,0.0005c-0.1655,0.1709-0.3348,0.3381-0.4999,0.5095
				C95.1998,92.9636,105.7473,96.1618,115.6148,100.0727z"/>
			<linearGradient id="SVGID_25_" gradientUnits="userSpaceOnUse" x1="206.6817" y1="141.0451" x2="413.5908" y2="389.6989">
				<stop  offset="0.0017" style="stop-color:#427BFF"/>
				<stop  offset="0.9959" style="stop-color:#A6A6B1"/>
			</linearGradient>
			<path class="st24" d="M134.5973,66.1178c5.7201,2.4924,11.1857,5.2213,16.3169,8.1956c1.2681,0.7556,2.5171,1.5248,3.7396,2.3125
				c17.2406,10.691,33.2152,23.4251,47.5252,37.7993v-3.1249c-4.0066-3.9558-8.1309-7.7931-12.3794-11.4885
				c0.4995-0.5232,0.9944-1.0508,1.4991-1.5691c-10.3784-8.9377-21.4281-17.0924-33.0611-24.306
				c-3.5425-2.2824-7.2882-4.4226-11.1803-6.4448c1.0659-0.9344,2.1387-1.8612,3.2166-2.7823
				c-7.2054-3.6177-14.8651-6.8268-22.79-9.6611c-1.211,0.7804-2.4108,1.5764-3.606,2.3789
				c-0.0018-0.0006-0.0034-0.0013-0.0052-0.0019c-0.066,0.0442-0.1304,0.0906-0.1963,0.1349
				c-0.4695,0.3159-0.9338,0.6387-1.4009,0.9579c-0.0035-0.0013-0.0069-0.0026-0.0105-0.0039
				c-0.7584,0.5173-1.5107,1.0428-2.2628,1.5686c0.0006,0.0002,0.0012,0.0005,0.0018,0.0007
				c-0.1024,0.0716-0.2068,0.1406-0.3091,0.2123c0.0003,0.0001,0.0007,0.0003,0.0011,0.0004
				c-0.0958,0.0672-0.1935,0.132-0.2892,0.1993C124.6015,62.2063,129.6695,64.0915,134.5973,66.1178z"/>
			<linearGradient id="SVGID_26_" gradientUnits="userSpaceOnUse" x1="190.7601" y1="154.2938" x2="397.6691" y2="402.9476">
				<stop  offset="0.0017" style="stop-color:#427BFF"/>
				<stop  offset="0.9959" style="stop-color:#A6A6B1"/>
			</linearGradient>
			<path class="st25" d="M124.7253,82.9272c5.4571,2.3341,10.6808,4.8905,15.584,7.6843c1.439,0.8445,2.8534,1.7069,4.2313,2.5946
				c21.644,13.4212,41.1448,30.2877,57.6386,49.6671v-3.4418c-7.7582-8.9151-16.1454-17.2895-25.0871-25.0241
				c0.4505-0.566,0.8961-1.136,1.3513-1.698c-9.5337-8.147-19.6676-15.5881-30.3186-22.1928
				c-4.974-3.2046-10.358-6.1229-16.0279-8.7894c0.9376-0.9561,1.8605-1.9268,2.8109-2.8702
				c-8.4792-3.8392-17.5106-7.1261-26.7536-9.9396c-1.0277,0.8172-2.0452,1.6465-3.0598,2.4793
				c-0.0045-0.0014-0.0089-0.0029-0.0134-0.0042c-0.1608,0.1323-0.3174,0.2694-0.4778,0.4022
				c-0.294,0.2427-0.583,0.4912-0.8758,0.7353c-0.0019-0.0006-0.0037-0.0012-0.0056-0.0018
				c-0.6798,0.5675-1.355,1.1403-2.0284,1.715c0.0003,0.0001,0.0007,0.0002,0.0011,0.0003
				c-0.1166,0.0997-0.2356,0.1966-0.3521,0.2964c0.0003,0.0001,0.0006,0.0002,0.0009,0.0003
				c-0.1427,0.1223-0.2887,0.2409-0.4312,0.3635C109.0781,77.2054,117.0947,79.867,124.7253,82.9272z"/>
			<linearGradient id="SVGID_27_" gradientUnits="userSpaceOnUse" x1="223.4505" y1="127.0915" x2="430.3595" y2="375.7454">
				<stop  offset="0.0017" style="stop-color:#427BFF"/>
				<stop  offset="0.9959" style="stop-color:#A6A6B1"/>
			</linearGradient>
			<path class="st26" d="M142.5998,48.5044c5.9727,2.5726,11.7031,5.3752,17.0871,8.4359c1.7297,1.0091,3.4283,2.0411,5.0803,3.1054
				c16.8204,10.4305,32.4876,22.7109,46.7097,36.4723h3.2261c-3.5311-3.4722-7.1495-6.8561-10.8579-10.1387
				c0.5493-0.48,1.0943-0.9648,1.6491-1.4387c-11.6049-10.1908-24.0256-19.4497-37.1432-27.5835
				c-1.6504-1.0633-3.3452-2.0955-5.0717-3.1043c1.2004-0.9052,2.4071-1.8024,3.6214-2.6901
				c-5.6706-3.2101-11.6738-6.1494-17.9207-8.8312c-1.4239,0.7207-2.8375,1.4588-4.244,2.2082
				c-0.0001-0.0001-0.0003-0.0001-0.0004-0.0002c-0.0049,0.0026-0.0097,0.0054-0.0145,0.0079
				c-0.6225,0.3317-1.2383,0.6742-1.8575,1.0111c-0.0107-0.0046-0.0212-0.0096-0.0319-0.0142
				c-0.8286,0.4501-1.6448,0.9197-2.4674,1.3793c0.001,0.0005,0.002,0.0009,0.003,0.0013
				c-0.0776,0.0434-0.1566,0.0844-0.2342,0.1279c0.0002,0.0001,0.0004,0.0002,0.0006,0.0002
				c-0.0159,0.0089-0.0321,0.0174-0.048,0.0263C140.9326,47.812,141.7614,48.1631,142.5998,48.5044z"/>
			<linearGradient id="SVGID_28_" gradientUnits="userSpaceOnUse" x1="240.5296" y1="112.8797" x2="447.4387" y2="361.5336">
				<stop  offset="0.0017" style="stop-color:#427BFF"/>
				<stop  offset="0.9959" style="stop-color:#A6A6B1"/>
			</linearGradient>
			<path class="st27" d="M169.4182,40.1299c1.8608,1.0832,3.6866,2.1921,5.462,3.336
				c23.5013,14.5734,44.9038,32.5294,63.4179,53.0521h1.0713h1.9492c-6.9665-7.8269-14.347-15.2895-22.0987-22.3444
				c0.6068-0.4389,1.2097-0.883,1.8222-1.3146c-12.5683-11.3683-26.1061-21.6585-40.4213-30.7109
				c1.3398-0.8621,2.6855-1.7157,4.041-2.5553c-0.1778-0.1108-0.3537-0.2249-0.5318-0.3353
				c-3.6759-2.3682-7.5871-4.6451-11.7175-6.8352c-2.3954,0.9038-4.7673,1.8545-7.1262,2.8304
				c-0.0043-0.0023-0.0085-0.0047-0.0128-0.007c-0.6299,0.2613-1.2571,0.5273-1.8846,0.793
				c-0.1885,0.08-0.3797,0.1547-0.5679,0.2353c0.0014,0.0006,0.0027,0.0014,0.0041,0.002
				c-0.0757,0.0324-0.1521,0.0634-0.2277,0.0958c0.0007,0.0004,0.0015,0.0008,0.0023,0.0012
				c-0.0335,0.0144-0.0676,0.0276-0.1011,0.042C164.8569,37.6127,167.1651,38.8509,169.4182,40.1299z"/>
			<linearGradient id="SVGID_29_" gradientUnits="userSpaceOnUse" x1="159.1821" y1="180.5703" x2="366.0912" y2="429.2242">
				<stop  offset="0.0017" style="stop-color:#427BFF"/>
				<stop  offset="0.9959" style="stop-color:#A6A6B1"/>
			</linearGradient>
			<path class="st28" d="M103.4401,116.0619c0.0195-0.0276,0.0402-0.0545,0.0597-0.0821
				c6.2077,2.4734,12.1133,5.2608,17.5627,8.3845c1.1028,0.654,2.1909,1.3184,3.2518,2.0019
				c28.1036,17.4269,52.0779,41.5165,69.3157,69.6384l38.1273,66.135h2.5958l-38.7901-67.2846
				c-10.8545-17.7089-24.3436-33.8256-39.8268-47.7177c0.3471-0.6588,0.6884-1.321,1.0423-1.9754
				c-9.0154-7.9455-18.6751-15.1569-28.8801-21.4847c-6.6312-4.2723-14.0352-7.968-21.8763-11.1683
				c0.7056-0.9687,1.3951-1.9501,2.1138-2.9086c-10.3486-3.9881-21.3433-7.1674-32.28-9.6892
				c-1.0582,1.2248-2.0982,2.4654-3.1289,3.714c-0.0032-0.0007-0.0063-0.0016-0.0094-0.0023
				c-0.5277,0.6363-1.0452,1.2813-1.5664,1.9232c0.0023,0.0006,0.0045,0.0011,0.0068,0.0017
				c-0.117,0.1441-0.2375,0.2852-0.3542,0.4296c0.0017,0.0004,0.0035,0.0009,0.0052,0.0013
				c-0.1735,0.215-0.3507,0.427-0.5236,0.6425C81.4995,109.0424,92.8287,112.1346,103.4401,116.0619z"/>
			<linearGradient id="SVGID_30_" gradientUnits="userSpaceOnUse" x1="144.2399" y1="193.004" x2="351.1489" y2="441.6579">
				<stop  offset="0.0017" style="stop-color:#427BFF"/>
				<stop  offset="0.9959" style="stop-color:#A6A6B1"/>
			</linearGradient>
			<path class="st29" d="M92.6028,132.6207c0.0275-0.0454,0.0567-0.0895,0.0842-0.1349c6.6685,2.535,13.0019,5.443,18.7731,8.7647
				c0.9287,0.5546,1.8451,1.118,2.7413,1.6954c25.9719,16.1052,48.1271,38.3675,64.0561,64.3536l31.612,54.84h1.289h1.3065
				l-32.2745-55.9891c-9.1405-14.9123-20.3026-28.6019-33.0352-40.632c0.2962-0.7276,0.586-1.4585,0.8913-2.1814
				c-9.3342-8.6277-19.4683-16.3878-30.2614-23.0806c-6.8666-4.4239-14.6288-8.1792-22.8505-11.3723
				c0.6128-0.9783,1.2088-1.968,1.8335-2.9381c-10.991-3.9994-22.657-7.0591-34.0471-9.3856
				c-0.5758,0.7994-1.1407,1.6071-1.7069,2.4138c-0.0025-0.0005-0.0049-0.0011-0.0074-0.0017
				c-0.1188,0.1693-0.234,0.3412-0.3526,0.5107c-0.2347,0.3362-0.4687,0.6729-0.7018,1.0104
				c-0.4094,0.5886-0.8233,1.1737-1.2253,1.7676c0.0026,0.0006,0.0051,0.0011,0.0077,0.0017
				c-0.1102,0.1622-0.2246,0.3213-0.3342,0.484c0.005,0.001,0.01,0.0022,0.0149,0.0032c-0.1681,0.2495-0.3408,0.4955-0.5079,0.7457
				C69.4864,125.7225,81.4206,128.6905,92.6028,132.6207z"/>
			<linearGradient id="SVGID_31_" gradientUnits="userSpaceOnUse" x1="258.614" y1="97.8313" x2="465.5231" y2="346.4852">
				<stop  offset="0.0017" style="stop-color:#427BFF"/>
				<stop  offset="0.9959" style="stop-color:#A6A6B1"/>
			</linearGradient>
			<path class="st30" d="M354.1959,204.2428c-0.2566-0.006-0.507-0.0102-0.7372-0.0109c-0.6332,0.0116-1.2426,0.0343-1.8287,0.0634
				l25.8985,44.8965c0.644-0.3978,1.269-0.8144,1.8769-1.2469L354.1959,204.2428z"/>
			<linearGradient id="SVGID_32_" gradientUnits="userSpaceOnUse" x1="277.1877" y1="82.3759" x2="484.0968" y2="331.0298">
				<stop  offset="0.0017" style="stop-color:#427BFF"/>
				<stop  offset="0.9959" style="stop-color:#A6A6B1"/>
			</linearGradient>
			<path class="st31" d="M478.8429,344.4061l-81.469-141.2141l-1.4655,1.9599l81.8582,141.8886
				C478.1278,346.1636,478.4917,345.2881,478.8429,344.4061z"/>
			<linearGradient id="SVGID_33_" gradientUnits="userSpaceOnUse" x1="212.3159" y1="136.3568" x2="419.225" y2="385.0107">
				<stop  offset="0.0017" style="stop-color:#427BFF"/>
				<stop  offset="0.9959" style="stop-color:#A6A6B1"/>
			</linearGradient>
			<path class="st32" d="M433.2268,417.175l-64.5126-111.8518c-0.8011,0.1168-1.6078,0.2161-2.4143,0.3153l65.3239,113.2585
				C432.1584,418.3231,432.6979,417.754,433.2268,417.175z"/>
			<linearGradient id="SVGID_34_" gradientUnits="userSpaceOnUse" x1="290.5256" y1="71.2772" x2="497.4347" y2="319.9311">
				<stop  offset="0.0017" style="stop-color:#427BFF"/>
				<stop  offset="0.9959" style="stop-color:#A6A6B1"/>
			</linearGradient>
			<path class="st33" d="M242.447,17.5487c-0.0053-0.0043-0.0104-0.0088-0.0157-0.013c-0.9887,0.0585-1.977,0.1188-2.9629,0.1877
				c-0.0005,0.0001-0.001,0.0001-0.0015,0.0001c-0.1183,0.0083-0.2373,0.0139-0.3555,0.0225
				c27.798,22.3514,52.1033,49.0372,71.6778,78.7719h2.7096c-11.7529-18.0196-25.2342-34.9286-40.158-50.4622
				c0.7935-0.2758,1.584-0.5581,2.3821-0.8237c-9.4906-9.8661-19.5522-19.1862-30.1377-27.8674
				C244.5357,17.4129,243.493,17.4871,242.447,17.5487z"/>
			<linearGradient id="SVGID_35_" gradientUnits="userSpaceOnUse" x1="293.1485" y1="69.0947" x2="500.0575" y2="317.7486">
				<stop  offset="0.0017" style="stop-color:#427BFF"/>
				<stop  offset="0.9959" style="stop-color:#A6A6B1"/>
			</linearGradient>
			<path class="st34" d="M486.9244,320.4592l-77.1923-133.7936l-1.4656,1.9599l77.7927,134.8345
				C486.3522,322.4617,486.6442,321.463,486.9244,320.4592z"/>
			<linearGradient id="SVGID_36_" gradientUnits="userSpaceOnUse" x1="226.758" y1="124.3393" x2="433.6671" y2="372.9932">
				<stop  offset="0.0017" style="stop-color:#427BFF"/>
				<stop  offset="0.9959" style="stop-color:#A6A6B1"/>
			</linearGradient>
			<path class="st35" d="M446.1998,401.6991l-58.2825-101.043c-0.7217,0.2499-1.4421,0.5023-2.1713,0.7365l58.9718,102.2379
				C445.2191,402.9927,445.7047,402.3421,446.1998,401.6991z"/>
			<linearGradient id="SVGID_37_" gradientUnits="userSpaceOnUse" x1="241.5706" y1="112.0134" x2="448.4797" y2="360.6673">
				<stop  offset="0.0017" style="stop-color:#427BFF"/>
				<stop  offset="0.9959" style="stop-color:#A6A6B1"/>
			</linearGradient>
			<path class="st36" d="M458.2324,384.5959l-52.9962-91.8719c-0.6469,0.3777-1.301,0.744-1.9577,1.1068l53.5746,92.8745
				C457.313,386.0023,457.7797,385.3041,458.2324,384.5959z"/>
			<linearGradient id="SVGID_38_" gradientUnits="userSpaceOnUse" x1="261.9378" y1="95.0656" x2="468.8468" y2="343.7195">
				<stop  offset="0.0017" style="stop-color:#427BFF"/>
				<stop  offset="0.9959" style="stop-color:#A6A6B1"/>
			</linearGradient>
			<path class="st37" d="M469.1741,365.6026l-88.0588-152.6455l-1.3982-1.0189c-0.9107-0.6637-1.8698-1.2831-2.8628-1.8669
				l91.0796,157.8817C468.3493,367.1708,468.7672,366.39,469.1741,365.6026z"/>
			<linearGradient id="SVGID_39_" gradientUnits="userSpaceOnUse" x1="7.5309" y1="306.7618" x2="214.44" y2="555.4157">
				<stop  offset="0.0017" style="stop-color:#427BFF"/>
				<stop  offset="0.9959" style="stop-color:#A6A6B1"/>
			</linearGradient>
			<path class="st38" d="M107.095,442.392L35.3169,317.821l-0.0535-0.0906c-3.1348-5.1135-7.4542-9.5052-12.4571-12.7266
				c0.5287,2.5403,1.1133,5.0596,1.7237,7.5689c-0.0042-0.0046-0.0082-0.0095-0.0124-0.014
				c0.1396,0.5757,0.2965,1.1445,0.4402,1.7186c0.2601,1.0363,0.5074,2.0777,0.7804,3.1089
				c0.0083,0.0096,0.0154,0.0201,0.0237,0.0296c0.0886,0.3344,0.1678,0.6725,0.2578,1.0062
				c-0.0007-0.001-0.0014-0.0021-0.0021-0.0031c0.0051,0.0189,0.0106,0.0377,0.0157,0.0565
				c0.0176,0.0652,0.0366,0.1298,0.0542,0.1949c0.7821,2.8917,1.6018,5.7678,2.4894,8.6145l51.7256,89.9282
				c0.6815,0.7458,1.3762,1.4791,2.0676,2.2156l0.0082,0.0142c0.0452,0.0482,0.0928,0.0942,0.138,0.1425
				c1.4307,1.5216,2.874,3.0312,4.3426,4.516l-0.0474-0.0823c0.7306,0.7391,1.4662,1.4728,2.2063,2.2024l0.0415,0.0721
				c1.4626,1.4409,2.9455,2.8611,4.4448,4.2639c0.018,0.0169,0.0353,0.0347,0.0533,0.0515l-0.0034-0.0059
				c4.2784,4.0009,8.7019,7.8482,13.2654,11.53L107.095,442.392z"/>
			<linearGradient id="SVGID_40_" gradientUnits="userSpaceOnUse" x1="333.8179" y1="35.253" x2="540.7269" y2="283.9069">
				<stop  offset="0.0017" style="stop-color:#427BFF"/>
				<stop  offset="0.9959" style="stop-color:#A6A6B1"/>
			</linearGradient>
			<path class="st39" d="M371.9326,46.6544c-1.404-0.7739-2.8184-1.5307-4.2394-2.277c3.5956,5.2803,7.0711,10.6406,10.4081,16.0847
				l117.4648,203.5756c0.0472-1.4386,0.0789-2.8809,0.1006-4.3258L380.0343,59.3125
				C377.4165,55.0417,374.709,50.8255,371.9326,46.6544z"/>
			<linearGradient id="SVGID_41_" gradientUnits="userSpaceOnUse" x1="348.2211" y1="23.2678" x2="555.1301" y2="271.9217">
				<stop  offset="0.0017" style="stop-color:#427BFF"/>
				<stop  offset="0.9959" style="stop-color:#A6A6B1"/>
			</linearGradient>
			<path class="st40" d="M409.3391,72.162c-1.609-1.3366-3.2324-2.6565-4.8767-3.9512l88.8489,153.9747
				c-0.2924-2.0603-0.6104-4.1122-0.955-6.1553L409.3391,72.162z"/>
			<linearGradient id="SVGID_42_" gradientUnits="userSpaceOnUse" x1="283.4935" y1="77.1288" x2="490.4025" y2="325.7827">
				<stop  offset="0.0017" style="stop-color:#427BFF"/>
				<stop  offset="0.9959" style="stop-color:#A6A6B1"/>
			</linearGradient>
			<path class="st41" d="M339.0946,144.6168l5.0466,8.748c0.8109-0.0557,1.6509-0.1046,2.5113-0.1472l-6.657-11.5397v2.9388
				H339.0946z"/>
			<linearGradient id="SVGID_43_" gradientUnits="userSpaceOnUse" x1="30.7246" y1="287.4619" x2="237.6337" y2="536.1158">
				<stop  offset="0.0017" style="stop-color:#427BFF"/>
				<stop  offset="0.9959" style="stop-color:#A6A6B1"/>
			</linearGradient>
			<path class="st42" d="M59.8834,296.0227c-2.0843-3.4009-4.4714-6.6171-7.1035-9.6187c-0.0815-2.4393-0.1427-4.8838-0.1646-7.3378
				c-3.1503-2.8275-6.5421-5.3778-10.1263-7.6003c-6.8918-4.4402-16.1636-7.0333-24.6038-8.5515
				c0.0388,1.3797,0.094,2.7552,0.1589,4.1283c-0.0007-0.0002-0.0013-0.0004-0.002-0.0005
				c0.0359,0.7945,0.0738,1.5883,0.1174,2.3808c0.0027,0.0007,0.0054,0.0015,0.0082,0.0022c0.009,0.165,0.014,0.3311,0.0234,0.496
				c0.0024,0.0006,0.0049,0.0013,0.0073,0.0018c0.0141,0.2426,0.0244,0.4861,0.039,0.7285
				c3.7144,0.7231,7.5167,1.6734,11.0905,2.9083c1.1117,0.4873,2.1834,1.0098,3.2088,1.5677
				c0.2526,0.1531,0.5139,0.2999,0.7592,0.458c8.9166,5.5292,16.5226,13.1718,21.9804,22.0756l100.8343,175.1871
				c0.3573,0.1661,0.7178,0.3263,1.0757,0.4912l0.0087,0.0151c0.7703,0.3535,1.5442,0.7003,2.318,1.0474
				c0.0394,0.0176,0.0782,0.0361,0.1176,0.0537l-0.0005-0.0008c1.311,0.5872,2.6259,1.1674,3.9508,1.7289L59.8834,296.0227z"/>
			<linearGradient id="SVGID_44_" gradientUnits="userSpaceOnUse" x1="18.5502" y1="297.5925" x2="225.4593" y2="546.2463">
				<stop  offset="0.0017" style="stop-color:#427BFF"/>
				<stop  offset="0.9959" style="stop-color:#A6A6B1"/>
			</linearGradient>
			<path class="st43" d="M57.821,330.45c-1.0507-5.3525-1.9497-10.759-2.6883-16.2172l-4.4368-7.7109l-0.0535-0.0897
				c-4.5604-7.4412-10.8973-13.8088-18.2712-18.3806c-3.755-2.4191-8.4072-4.1308-13.1036-5.3473
				c0.1237,1.1151,0.2595,2.2265,0.398,3.3371c-0.0058-0.0022-0.0115-0.0046-0.0173-0.0068
				c0.0779,0.6228,0.1712,1.2408,0.2558,1.8615c-0.0026-0.0012-0.005-0.0025-0.0077-0.0037
				c0.118,0.8864,0.2436,1.7703,0.3713,2.6536c0.0002,0,0.0003,0.0002,0.0005,0.0003c0.0088,0.0606,0.0162,0.1217,0.0251,0.1823
				c0.0001,0.0001,0.0002,0.0001,0.0002,0.0001c0.0034,0.0231,0.0061,0.0464,0.0095,0.0695
				c0.2061,0.0652,0.404,0.1411,0.6084,0.2087c0.6323,0.286,1.2484,0.5858,1.843,0.9023c0.1411,0.0865,0.2911,0.1667,0.4289,0.2555
				c6.7845,4.2075,12.5718,10.0232,16.7207,16.7917l83.7941,145.6282c0.4229,0.284,0.8526,0.5585,1.2769,0.8405v0.0001
				c0.001,0.0007,0.0021,0.0014,0.0031,0.002c0.9626,0.6397,1.9232,1.282,2.8966,1.9066l-0.0196-0.0341
				c1.5338,0.9885,3.0751,1.9662,4.6347,2.9174L57.821,330.45z"/>
			<linearGradient id="SVGID_45_" gradientUnits="userSpaceOnUse" x1="68.945" y1="255.6582" x2="275.854" y2="504.312">
				<stop  offset="0.0017" style="stop-color:#427BFF"/>
				<stop  offset="0.9959" style="stop-color:#A6A6B1"/>
			</linearGradient>
			<path class="st44" d="M22.5452,208.4443c-0.0041-0.0006-0.0083-0.0014-0.0124-0.0021c-0.0584,0.2889-0.1097,0.5805-0.1667,0.8699
				c-0.2851,1.4178-0.5612,2.8388-0.8175,4.2669c10.6674,1.4465,22.9793,3.9044,33.8179,7.992
				c2.321,1.0037,4.5404,2.1004,6.646,3.2814c0.5472,0.3268,1.095,0.653,1.623,0.9932c15.3117,9.4946,28.374,22.6197,37.7584,37.929
				l132.5751,230.1668c0.9103,0.0862,1.8221,0.1671,2.7354,0.2429l-0.0084-0.0146c1.0329,0.0872,2.0643,0.18,3.1014,0.2527
				l-133.796-232.2862c-9.6585-15.7579-23.0796-29.2431-38.7821-38.9803c-2.6538-1.7097-5.5394-3.2435-8.568-4.6361
				c0.2492-1.1815,0.5044-2.3608,0.7696-3.5364c-11.7036-4.619-24.9646-7.323-36.3901-8.8944
				C22.8643,206.8726,22.7059,207.6588,22.5452,208.4443z"/>
			<linearGradient id="SVGID_46_" gradientUnits="userSpaceOnUse" x1="244.8789" y1="109.2606" x2="451.7879" y2="357.9145">
				<stop  offset="0.0017" style="stop-color:#427BFF"/>
				<stop  offset="0.9959" style="stop-color:#A6A6B1"/>
			</linearGradient>
			<path class="st45" d="M334.9863,208.891c-0.6411,0.3961-1.2654,0.8155-1.8707,1.2576l25.9579,45.0027
				c0.8156-0.0779,1.6269-0.1701,2.4297-0.2885L334.9863,208.891z"/>
			<linearGradient id="SVGID_47_" gradientUnits="userSpaceOnUse" x1="198.2484" y1="148.0626" x2="405.1575" y2="396.7165">
				<stop  offset="0.0017" style="stop-color:#427BFF"/>
				<stop  offset="0.9959" style="stop-color:#A6A6B1"/>
			</linearGradient>
			<path class="st46" d="M419.376,431.1306l-71.8865-124.6461c-0.9195-0.0396-1.8116-0.0876-2.6783-0.1427l72.8756,126.3613
				C418.2554,432.1847,418.8126,431.6543,419.376,431.1306z"/>
			<linearGradient id="SVGID_48_" gradientUnits="userSpaceOnUse" x1="216.8645" y1="132.5718" x2="423.7736" y2="381.2257">
				<stop  offset="0.0017" style="stop-color:#427BFF"/>
				<stop  offset="0.9959" style="stop-color:#A6A6B1"/>
			</linearGradient>
			<path class="st47" d="M239.7476,162.1191l4.929,8.5473v-4.5017l-2.9959-5.1952c-3.4241-5.5863-7.0663-11.0399-10.9063-16.3528
				h-2.7927C232.1363,150.2941,236.0743,156.1264,239.7476,162.1191z"/>
			<linearGradient id="SVGID_49_" gradientUnits="userSpaceOnUse" x1="255.6004" y1="100.339" x2="462.5095" y2="348.9929">
				<stop  offset="0.0017" style="stop-color:#427BFF"/>
				<stop  offset="0.9959" style="stop-color:#A6A6B1"/>
			</linearGradient>
			<path class="st48" d="M306.5605,164.1107c0.649-0.3765,1.3103-0.729,1.9694-1.0867l-3.0213-5.2378h-2.5961L306.5605,164.1107z"/>
			<linearGradient id="SVGID_50_" gradientUnits="userSpaceOnUse" x1="230.9949" y1="120.8137" x2="437.904" y2="369.4675">
				<stop  offset="0.0017" style="stop-color:#427BFF"/>
				<stop  offset="0.9959" style="stop-color:#A6A6B1"/>
			</linearGradient>
			<path class="st49" d="M323.0731,226.1907c-0.1787,1.1523-0.2904,2.3611-0.3007,3.6419c0.001,0.1227,0.0105,0.2392,0.0132,0.3607
				l11.669,20.2317c1.2091,0.7837,2.4799,1.4773,3.7953,2.0792L323.0731,226.1907z"/>
			<linearGradient id="SVGID_51_" gradientUnits="userSpaceOnUse" x1="189.7668" y1="155.1203" x2="396.6759" y2="403.7742">
				<stop  offset="0.0017" style="stop-color:#427BFF"/>
				<stop  offset="0.9959" style="stop-color:#A6A6B1"/>
			</linearGradient>
			<path class="st50" d="M266.576,246.6004l8.9602,15.5391h0.0702c-1.8397-3.902-3.3347-7.9662-4.4797-12.1491l-1.9548-3.39H266.576
				z"/>
			<linearGradient id="SVGID_52_" gradientUnits="userSpaceOnUse" x1="270.0939" y1="88.2787" x2="477.003" y2="336.9326">
				<stop  offset="0.0017" style="stop-color:#427BFF"/>
				<stop  offset="0.9959" style="stop-color:#A6A6B1"/>
			</linearGradient>
			<path class="st51" d="M324.1141,156.595c0.7489-0.2164,1.5019-0.4009,2.2541-0.5931l-6.5675-11.3851h-2.5963L324.1141,156.595z"
				/>
			<linearGradient id="SVGID_53_" gradientUnits="userSpaceOnUse" x1="182.3971" y1="161.2527" x2="389.3062" y2="409.9066">
				<stop  offset="0.0017" style="stop-color:#427BFF"/>
				<stop  offset="0.9959" style="stop-color:#A6A6B1"/>
			</linearGradient>
			<path class="st52" d="M404.7259,443.7023l-64.0164-111.0093c-0.2725,0.9916-0.5755,1.9683-0.9052,2.932l63.1283,109.4694
				C403.5309,444.631,404.1321,444.1712,404.7259,443.7023z"/>
			<linearGradient id="SVGID_54_" gradientUnits="userSpaceOnUse" x1="148.9267" y1="189.104" x2="355.8358" y2="437.7579">
				<stop  offset="0.0017" style="stop-color:#427BFF"/>
				<stop  offset="0.9959" style="stop-color:#A6A6B1"/>
			</linearGradient>
			<path class="st53" d="M371.7367,465.5803c1.2049-0.6627,2.4073-1.3295,3.5995-2.0122l-5.3398-9.2614
				c-0.9189,0.1204-1.8435,0.2222-2.7666,0.3291l-24.3208-42.1819h-2.596l30.8243,53.4616
				C371.3382,465.8056,371.5368,465.6919,371.7367,465.5803z"/>
			<linearGradient id="SVGID_55_" gradientUnits="userSpaceOnUse" x1="167.5099" y1="173.6406" x2="374.4189" y2="422.2945">
				<stop  offset="0.0017" style="stop-color:#427BFF"/>
				<stop  offset="0.9959" style="stop-color:#A6A6B1"/>
			</linearGradient>
			<path class="st54" d="M288.7963,318.6012l-4.4594-7.7343c-0.8605-0.2509-1.8266-0.4283-2.9006-0.5282l6.3549,11.0218
				C288.2516,320.7608,288.6328,319.9091,288.7963,318.6012z"/>
			<linearGradient id="SVGID_56_" gradientUnits="userSpaceOnUse" x1="154.3997" y1="184.5499" x2="361.3087" y2="433.2038">
				<stop  offset="0.0017" style="stop-color:#427BFF"/>
				<stop  offset="0.9959" style="stop-color:#A6A6B1"/>
			</linearGradient>
			<polygon class="st55" points="267.597,324.3065 270.193,324.3065 262.0801,310.2341 259.4842,310.2341 			"/>
			<linearGradient id="SVGID_57_" gradientUnits="userSpaceOnUse" x1="200.3847" y1="146.2849" x2="407.2938" y2="394.9388">
				<stop  offset="0.0017" style="stop-color:#427BFF"/>
				<stop  offset="0.9959" style="stop-color:#A6A6B1"/>
			</linearGradient>
			<path class="st56" d="M224.3751,173.4141l20.3015,35.2076v-4.502l-18.3685-31.8552c-5.919-9.6567-12.526-18.8953-19.7319-27.6478
				h-2.9016C211.265,153.7054,218.1964,163.334,224.3751,173.4141z"/>
		</g>
		<path class="st57" d="M269.6427,118.3625c-2.3127-3.3866-4.7867-6.2996-7.3448-8.8301h8.1766
			c1.4538,1.7204,2.8383,3.5288,4.1397,5.435l0.1292,0.1891l0.1145,0.1987l21.5758,37.4174h-6.9494L269.6427,118.3625z
			 M296.4337,130.6079l-12.1526-21.0754h-6.9493l12.1526,21.0754H296.4337z M260.9883,125.4422l28.496,49.4186v-0.0005h6.9489
			l-30.2295-52.4254l-0.0404-0.0701l-0.0421-0.0689c-2.9731-4.8501-6.8581-9.1693-11.3973-12.7635h-11.0493
			C251.197,113.4007,257.1172,119.1263,260.9883,125.4422z M406.2885,286.0684c-13.1451,8.8496-29.6295,14.3908-47.5105,15.2725
			c-1.5874,0.0782-4.5755,0.2325-6.9646,0.2325c-7.6161-0.1361-14.3214-1.031-17.7317-1.644
			c-1.5775-0.2835-3.1544-0.6375-4.727-1.0444c3.5191,6.2766,5.2908,13.4404,5.2908,21.5028c0,0.2236,0,1.1076,0,1.3311
			c0,13.2852-4.7792,24.1458-14.3315,32.582c-2.737,2.4153-5.7213,4.473-8.9359,6.197v2.4695l28.9485,41.9882v2.4846h-39.7582
			l-25.8533-40.4872h-27.7687v40.4872h-34.788V275.1537h70.7583c3.6463,0,7.1234,0.2454,10.4426,0.7199
			c-7.569-9.2235-12.9136-20.7758-14.4656-34.2868h-24.2031V139.6032h-42.4975v-30.0708h13.5087
			c13.1866,0.9386,24.599,8.2875,31.1364,18.9528l0.0173-0.0011l32.6287,56.5147v12.0205
			c10.6635-15.9644,27.6291-26.2327,44.5974-29.2826c3.4103-0.6129,10.1155-1.5078,17.7317-1.6439
			c2.389,0,5.3771,0.1542,6.9646,0.2325c17.8716,0.8811,34.3483,6.4169,47.4901,15.2585l-20.2423,27.0697
			c-7.4154-5.4037-17.188-8.8178-27.8799-9.3167c-0.8571-0.0401-2.4704-0.1189-3.7602-0.1189
			c-4.112,0.0696-7.7321,0.5269-9.5733,0.8401c-14.9643,2.5454-29.9417,14.9178-30.054,33.7748
			c-0.0004-0.071-0.0052-0.14-0.0052-0.2113v0.4226c0-0.0712,0.0048-0.1403,0.0052-0.2114
			c0.1124,18.857,15.0898,31.2294,30.054,33.7749c1.8412,0.3133,5.4613,0.7705,9.5733,0.8401c1.2898,0,2.9031-0.0788,3.7602-0.1187
			c10.7014-0.4995,20.4824-3.9188,27.9002-9.3309L406.2885,286.0684z M298.9024,321.1721c0-5.2489-1.6741-9.222-5.0222-11.914
			c-3.348-2.6896-7.9113-4.0376-13.6866-4.0376h-33.2469v32.1003H280.39c5.5145,0,9.976-1.4092,13.3916-4.234
			C297.1941,330.2652,298.9024,326.2928,298.9024,321.1721z M331.9816,139.6032v-30.0708h-40.9152l17.3218,30.0708H331.9816z"/>
		<linearGradient id="SVGID_58_" gradientUnits="userSpaceOnUse" x1="240.6424" y1="177.4726" x2="352.1294" y2="363.9789">
			<stop  offset="0.0017" style="stop-color:#6364B6"/>
			<stop  offset="0.9956" style="stop-color:#18196C"/>
		</linearGradient>
		<path class="st58" d="M268.6426,114.3621c-2.3127-3.3866-4.7867-6.2996-7.3449-8.8301h8.1766
			c1.4537,1.7204,2.8383,3.5289,4.1397,5.435l0.1292,0.1891l0.1145,0.1987l21.5758,37.4174h-6.9494L268.6426,114.3621z
			 M295.4336,126.6075l-12.1526-21.0754h-6.9494l12.1526,21.0754H295.4336z M259.9882,121.4418l28.496,49.4186v-0.0005h6.9489
			l-30.2296-52.4254l-0.0404-0.0701l-0.0421-0.0689c-2.9731-4.8501-6.8581-9.1693-11.3973-12.7635h-11.0493
			C250.1969,109.4003,256.117,115.1259,259.9882,121.4418z M405.2884,282.068c-13.1451,8.8496-29.6295,14.3908-47.5105,15.2725
			c-1.5874,0.0782-4.5755,0.2325-6.9646,0.2325c-7.6161-0.1361-14.3213-1.031-17.7316-1.644
			c-1.5775-0.2835-3.1544-0.6375-4.727-1.0444c3.5191,6.2766,5.2908,13.4404,5.2908,21.5028c0,0.2236,0,1.1076,0,1.3311
			c0,13.2852-4.7792,24.1458-14.3315,32.582c-2.737,2.4153-5.7213,4.473-8.9358,6.197v2.4695l28.9485,41.9882v2.4846h-39.7582
			l-25.8533-40.4872h-27.7688v40.4872h-34.788V271.1534h70.7583c3.6463,0,7.1234,0.2454,10.4426,0.7199
			c-7.569-9.2235-12.9136-20.7758-14.4656-34.2868h-24.2031V135.6028H211.193v-30.0708h13.5087
			c13.1866,0.9386,24.599,8.2875,31.1364,18.9528l0.0173-0.0011l32.6287,56.5147v12.0205
			c10.6634-15.9644,27.6291-26.2327,44.5974-29.2826c3.4103-0.6129,10.1155-1.5078,17.7316-1.6439
			c2.3891,0,5.3771,0.1542,6.9646,0.2325c17.8716,0.8811,34.3483,6.417,47.4902,15.2585l-20.2423,27.0697
			c-7.4154-5.4037-17.188-8.8178-27.8799-9.3167c-0.8571-0.04-2.4704-0.1189-3.7602-0.1189
			c-4.112,0.0696-7.7321,0.5269-9.5733,0.8401c-14.9642,2.5454-29.9417,14.9178-30.054,33.7748
			c-0.0004-0.071-0.0052-0.14-0.0052-0.2113v0.4226c0-0.0712,0.0048-0.1403,0.0052-0.2114
			c0.1124,18.8571,15.0898,31.2294,30.054,33.7748c1.8412,0.3133,5.4614,0.7705,9.5733,0.8401c1.2898,0,2.9031-0.0788,3.7602-0.1187
			c10.7014-0.4995,20.4824-3.9188,27.9002-9.3309L405.2884,282.068z M297.9023,317.1717c0-5.2489-1.6741-9.222-5.0222-11.914
			c-3.348-2.6896-7.9112-4.0376-13.6866-4.0376h-33.2469v32.1004h33.4433c5.5145,0,9.976-1.4092,13.3917-4.234
			C296.194,326.2648,297.9023,322.2924,297.9023,317.1717z M330.9815,135.6028v-30.0708h-40.9152l17.3218,30.0708H330.9815z"/>
		<g class="st59">
			<rect x="253.6906" y="139.6032" class="st60" width="3.0003" height="97.9833"/>
			<path class="st60" d="M268.5926,114.2925c0.0164,0.024,0.0336,0.0456,0.05,0.0696l19.8417,34.4102h0.6935l-17.5349-30.4098
				C270.6552,116.9162,269.6331,115.5732,268.5926,114.2925z"/>
			<path class="st60" d="M259.2176,120.2768c0.2568,0.3884,0.5295,0.7717,0.7706,1.165l28.496,49.4186v-0.0004h0.6933
				l-26.189-45.4177C261.8969,123.6611,260.6252,121.9356,259.2176,120.2768z"/>
			<path class="st60" d="M280.894,241.5869h-2.4102c2.0446,11.6727,6.9623,21.7662,13.6609,30.0157
				C286.2927,263.1674,282.2154,253.0902,280.894,241.5869z"/>
			<path class="st60" d="M295.7818,333.0868c3.4125-2.8216,5.1208-6.794,5.1208-11.9147c0-4.9723-1.5214-8.7852-4.5261-11.4632
				c1.0048,2.1088,1.5258,4.5873,1.5258,7.4628c0,5.1207-1.7083,9.0931-5.1208,11.9147c-3.4156,2.8248-7.8772,4.234-13.3917,4.234
				h-30.4431v4.0004h33.4434C287.9046,337.3208,292.3661,335.9116,295.7818,333.0868z"/>
			<path class="st60" d="M360.1461,268.3293c10.6987-0.4993,20.4772-3.9172,27.8944-9.3268l-2.9944-4.0045
				c-7.4179,5.4121-17.1989,8.8314-27.9002,9.3309c-0.8571,0.0399-2.4704,0.1188-3.7602,0.1188
				c-4.112-0.0696-7.7321-0.5268-9.5734-0.8401c-8.0864-1.3755-16.1718-5.6254-21.9181-12.2127
				c5.6778,8.8724,15.2974,14.5766,24.9184,16.2131c1.8412,0.3133,5.4614,0.7705,9.5734,0.8401
				C357.6758,268.448,359.2891,268.3692,360.1461,268.3293z"/>
			<path class="st60" d="M291.4846,188.9204v8.099c10.6635-15.9645,27.6291-26.2327,44.5974-29.2826
				c3.4103-0.6129,10.1155-1.5078,17.7317-1.6439c2.389,0,5.3771,0.1541,6.9645,0.2325
				c16.0721,0.7924,31.0074,5.359,43.4122,12.6993l1.0776-1.4412c-13.1419-8.8416-29.6185-14.3774-47.4902-15.2585
				c-1.5874-0.0784-4.5755-0.2325-6.9645-0.2325c-7.6161,0.1361-14.3214,1.031-17.7317,1.6439
				C317.6194,166.5156,302.1758,175.3054,291.4846,188.9204z"/>
			<path class="st60" d="M214.1588,275.1537h70.7582c3.6463,0,7.1234,0.2454,10.4426,0.7199
				c-1.057-1.2881-2.0655-2.6263-3.0315-4.0042c-3.3099-0.4717-6.7764-0.7161-10.4114-0.7161h-70.7582v132.2866h3.0003V275.1537z"/>
			<path class="st60" d="M256.7241,109.5324c2.7169,2.1513,5.1931,4.5671,7.386,7.1962
				c-2.8231-4.2151-6.3428-7.9948-10.3863-11.1965h-11.0493c2.2747,1.1697,4.3831,2.526,6.3524,4.0004H256.7241z"/>
			<path class="st60" d="M214.1934,109.5324h13.5087c10.9811,0.7817,20.7206,6.0184,27.4504,13.9041
				c-6.6306-10.0911-17.705-16.9973-30.4507-17.9045h-13.5087v30.0708h3.0003V109.5324z"/>
			<polygon class="st60" points="308.0841,135.6028 293.0667,109.5324 330.9815,109.5324 330.9815,105.532 290.0663,105.532 
				307.3881,135.6028 			"/>
			<polygon class="st60" points="276.7155,366.9531 276.2698,366.9531 299.5685,403.4399 300.0144,403.4399 			"/>
			<path class="st60" d="M272.4747,109.5324c0.3499,0.4141,0.6821,0.8502,1.0238,1.2745c-1.2686-1.8459-2.6121-3.6039-4.0241-5.2749
				h-8.1766c1.2509,1.2374,2.4807,2.5695,3.6824,4.0004H272.4747z"/>
			<polygon class="st60" points="289.1778,126.6075 279.3319,109.5324 285.5876,109.5324 283.2809,105.532 276.3316,105.532 
				288.4843,126.6075 			"/>
		</g>
	</g>
</g>
</svg>
